<?xml version="1.0" encoding="utf-8"?>
<!-- Generator: Adobe Illustrator 27.8.1, SVG Export Plug-In . SVG Version: 6.00 Build 0)  -->
<svg version="1.1" id="Group_40" xmlns="http://www.w3.org/2000/svg" xmlns:xlink="http://www.w3.org/1999/xlink" x="0px" y="0px"
	 viewBox="0 0 515.7 179.7" style="enable-background:new 0 0 515.7 179.7;" xml:space="preserve">
<style type="text/css">
	.st0{fill:#009CDE;}
</style>
<g>
	<path class="st0" d="M126,66.3c-0.1-0.2-0.2-0.3-0.4-0.5c-9.8-11-23.7-26.6-33.7-37.7c-3.1-3.3-6.2-6.6-9.1-10
		c-0.7-0.8-1.3-1.6-2-2.4c-0.6-0.6-0.9-1-0.9-1H80c-3.4-4-6.1-8.5-8-13.3l-0.5-1.1c0-0.1-0.1-0.1-0.2-0.2C71.2,0.1,71,0,70.9,0h-0.1
		c-0.2,0-0.3,0.1-0.4,0.1c-0.1,0.1-0.1,0.1-0.2,0.2l-0.5,1.1c-2,4.8-4.7,9.3-8,13.3h0.1c0,0-0.3,0.4-0.9,1c-0.7,0.8-1.3,1.6-2,2.4
		c-3,3.4-6,6.7-9.1,10c-10,11.1-24,26.7-33.8,37.7c-0.1,0.2-0.2,0.3-0.4,0.5c-37,49.3,3.2,89.5,3.2,89.5h-0.1
		c11.9,13.8,28.8,22.3,46.9,23.6c1.6,0.2,3.3,0.3,5.1,0.3h0.1c1.7,0,3.4-0.1,5.1-0.3c18.2-1.3,35-9.8,46.9-23.6h-0.1
		C122.8,155.8,163,115.6,126,66.3z M39.8,101l-0.9,1.4l-0.1,0.1c-6.8,8.2-10.8,17-12.1,25.7c-0.2,1.1-1.2,1.8-2.2,1.6
		c-0.7-0.1-1.2-0.6-1.5-1.2c-1.8-4.2-3-8.6-3.6-13.1C17.2,99.6,22,85.7,32.2,73.8c4.1-4.7,8.2-9.4,12.3-14.1
		c0.7-0.8,1.9-0.9,2.7-0.2l0,0c0.1,0.1,0.1,0.1,0.2,0.2c3.3,3.8,7.6,8.7,12.4,14.3c0.6,0.7,0.6,1.8,0,2.6
		c-6.6,7.9-13.6,16.3-19.9,24.3L39.8,101z M96.7,142.2L96.7,142.2c-3.8,10-11.3,16-21.9,17.7c-15.1,2.3-29.2-8-31.5-23.1
		c0-0.2,0-0.3-0.1-0.5c-1.2-8.5,1.4-16,6.9-22.4c6.4-7.5,20.5-24.9,20.7-25.2l0,0c0.3,0.3,15.3,19,20.9,25.6
		C98.8,122.6,100.5,132.1,96.7,142.2z M119,126.5L119,126.5c-0.1,0.3-0.3,0.7-0.4,1c-0.4,1-1.5,1.5-2.5,1.1
		c-0.6-0.3-1.1-0.8-1.2-1.5c-1.4-8.4-5.4-16.8-11.9-24.7l-0.1-0.1l-0.6-0.9l-0.4-0.5C96.7,94.3,69.2,62.1,57.2,48
		c-0.6-0.7-0.6-1.8,0-2.6c4-4.4,8-8.8,11.9-13.3c0.7-0.8,1.9-0.8,2.7-0.1l0,0l0.1,0.1c1.8,1.9,3.5,3.8,5.2,5.8
		C88,50.1,99,62.1,109.6,74.4C123,89.9,126.1,107.7,119,126.5z"/>
	<path id="Path_13739" class="st0" d="M485.1,56.9h12.5v2.5h-5v12.4h-2.5V59.5h-5V56.9z"/>
	<path id="Path_13740" class="st0" d="M513.2,71.8L512.1,61l-0.7,3.6l-2.6,7.2h-3.2l-2.6-7.2l-0.7-3.6l-1.1,10.8h-2.6l1.5-14.9h2.8
		l4.3,11.9l4.3-11.9h2.8l1.5,14.9H513.2z"/>
	<path id="Path_13741" class="st0" d="M194.2,60.9h-28v73.2h28c20.2,0,36.6-16.4,36.6-36.6C230.8,77.3,214.4,60.9,194.2,60.9
		 M211.5,114.8c-4.6,4.6-10.8,7.2-17.3,7.1h-15.8V73h15.8c13.6,0.1,24.5,11.2,24.4,24.7C218.6,104.1,216,110.3,211.5,114.8
		 M467.7,134.1h12.2V56.6h-12.2V134.1z M251.4,84.3v-4.5h-12.2v54.4h12.2v-33.6c0-5.9,4.9-8.6,9.5-8.6h7.6V79.7h-7.6
		C257.3,79.8,253.8,81.5,251.4,84.3 M316.5,107.9c0.1,4.2-1.2,8.2-3.7,11.6c-2.5,3.1-6.3,4.8-10.3,4.7c-3.3,0.1-6.5-1.1-9-3.3
		c-2.6-2.5-3.9-6.2-3.9-11V80.8h-12.2v31.9c-0.1,6.1,2.4,12,6.9,16.2c4.6,4.3,10.7,6.6,16.9,6.5c5.6,0.1,11.1-1.9,15.2-5.8v4.6h12.2
		V80.8h-12.2v27.1H316.5z M367.7,79.4c-6.2,0-12.2,2.2-16.9,6.3v-5h-12.2v77.7h12.2v-29.3c4.7,4.1,10.7,6.3,16.9,6.3
		c15,0,27.3-12.5,27.3-27.9C395,92,382.8,79.4,367.7,79.4 M378.3,118.6c-2.8,2.9-6.6,4.6-10.6,4.6c-8.6-0.2-15.4-7.2-15.3-15.8
		c0-4.2,1.6-8.2,4.5-11.3c2.8-3,6.7-4.6,10.8-4.6c8.3,0,15.1,7.1,15.1,15.9C382.8,111.6,381.2,115.6,378.3,118.6 M444.9,85.7
		c-4.7-4.1-10.7-6.4-16.9-6.3c-15,0-27.3,12.5-27.3,27.9s12.2,28,27.3,28c6.2,0.1,12.3-2.2,16.9-6.3v5.1h12.2V80.6h-12.2V85.7z
		 M428,123.3c-8.4,0-15.2-7.1-15.2-15.9c0-8.7,6.8-15.8,15.2-15.8s15.2,7.1,15.2,15.8S436.3,123.3,428,123.3"/>
</g>
</svg>
