<?xml version="1.0" encoding="UTF-8"?><svg xmlns="http://www.w3.org/2000/svg" xmlns:xlink="http://www.w3.org/1999/xlink" viewBox="0 0 400 200"><defs><style>.cls-1{mix-blend-mode:multiply;}.cls-1,.cls-2{isolation:isolate;}.cls-3{clip-path:url(#clippath);}.cls-4,.cls-5,.cls-6{fill:none;}.cls-4,.cls-7{stroke-width:0px;}.cls-5{stroke:#ccedf9;stroke-miterlimit:10;stroke-width:.72px;}.cls-8{clip-path:url(#clippath-1);}.cls-9{clip-path:url(#clippath-2);}.cls-7{fill:#e4e4e4;}.cls-10{opacity:.65;}.cls-11{opacity:.93;}.cls-6{stroke:#c0e6f8;stroke-width:.89px;}</style><clipPath id="clippath"><rect class="cls-4" x="-459.21" width="400" height="200"/></clipPath><clipPath id="clippath-1"><rect class="cls-4" x="448.59" width="400" height="200"/></clipPath><clipPath id="clippath-2"><rect class="cls-4" width="400" height="200"/></clipPath></defs><g class="cls-2"><g id="Layer_1"><g class="cls-3"><g id="Group_394"><g id="background"><rect id="Rectangle_104" class="cls-6" x="-467.01" y="-1.83" width="500.85" height="205.7"/></g><g id="artwork"><g id="Group_380" class="cls-1"><rect id="Rectangle_105" class="cls-6" x="-467.01" y="-1.83" width="500.85" height="205.7"/></g><g id="Group_381" class="cls-1"><path id="Path_10960" class="cls-6" d="M-467.18,203.54V17.75c61.78,19.85,113-10.11,180.28-9.83,45.62.19,80.19,24.15,132.8,23.13,60.41-1.17,108.54-37.14,187.62-13.3v185.79h-500.7Z"/></g><g id="Group_382" class="cls-1"><path id="Path_10961" class="cls-6" d="M-467.18,203.54V27.42c38.49-6.34,83.75,17.32,116.69,17.32,49.42,0,60.46-23.74,144.11-23.74,60.74,0,107.57,20.43,162.88,20.43,20.07,0,45.09-8.36,77.01-14.02v176.12h-500.7Z"/></g><g id="Group_383" class="cls-1"><path id="Path_10962" class="cls-6" d="M33.52,203.53V31.79c-62.84,17.11-113-9.34-180.28-9.09-45.62.17-80.19,22.32-132.8,21.38-60.41-1.09-108.54-34.32-187.62-12.29v171.74H33.52Z"/></g><g id="Group_384" class="cls-1"><path id="Path_10963" class="cls-6" d="M33.52,203.54V47.74c-38.46-6.69-83.75,15.37-116.69,15.37-49.42,0-60.46-20.99-144.11-20.99-60.74,0-107.57,18.07-162.88,18.07-20.07,0-45.37-6.69-77.01-12.45v155.79H33.52Z"/></g><g id="Group_385" class="cls-1"><path id="Path_10964" class="cls-6" d="M33.52,203.53V63.36c-106.13-18.3-143.28,12.93-196.21,12.93-59.82,0-110.94-25.45-168.59-25.45-46.1,0-86.5,20.21-135.9,12.52v140.17H33.52Z"/></g><g id="Group_386" class="cls-1"><path id="Path_10965" class="cls-6" d="M33.52,203.54V72.92c-62.34-11.55-78.83,14.07-140.66,14.07-83.12,0-87.04-30.99-149.19-30.99-56.17,0-119.74,34.8-210.85,16.92v130.62H33.52Z"/></g><g id="Group_387" class="cls-1"><path id="Path_10966" class="cls-6" d="M33.52,203.54v-116.89c-61.78,19.29-107.95-9.29-147.32-9.29-57.04,0-99.56,16.63-165.75,16.63-91.64,0-121.9-27.91-187.62-7.33v116.88H33.52Z"/></g><g id="Group_388" class="cls-1"><path id="Path_10967" class="cls-6" d="M33.52,203.54v-110.16c-49.56-7.32-84.86,20.87-137,16.88-55.37-4.24-86.46-24.85-130.88-24.85s-76.95,21.77-129.57,21.77c-27.17,0-60.29-7.31-103.25-13.8v110.16H33.52Z"/></g><g id="Group_389" class="cls-1"><path id="Path_10968" class="cls-6" d="M33.52,203.54v-89.75c-42.42,8.08-77.35,15.28-117.12,15.28-103.71,0-184.76-29.29-276.89-29.29-41.69,0-73.35,6.98-106.68,14.01v89.75H33.52Z"/></g><g id="Group_390" class="cls-1"><path id="Path_10969" class="cls-6" d="M33.52,203.54v-73.7c-27.79-7.95-70.72-16.05-115.48-12.89-91,6.43-152.23,34.37-250.52,34.5-72.73.1-104.81-12.73-134.7-21.62v73.7H33.52Z"/></g><g id="Group_391" class="cls-1"><path id="Path_10970" class="cls-6" d="M33.52,203.54v-55.04c-68.34,9.94-99.32,18-186.6,22.76-112.68,6.15-164.79-47.03-314.09-22.79v55.07H33.52Z"/></g><g id="Group_392" class="cls-1"><path id="Path_10971" class="cls-6" d="M33.52,203.54v-39.3c-53.39-10.12-109.92-19.26-196.28-5.48-48.25,7.7-85.99,26.67-152.65,29.06-45.73,1.64-115.14-17.22-151.76-23.58v39.3H33.52Z"/></g><g id="Group_393" class="cls-1"><path id="Path_10972" class="cls-6" d="M-467.18,203.54v-23.26c54.24-4.88,109.92-11.4,196.28-3.24,48.25,4.56,85.99,15.78,152.65,17.2,45.73.97,115.14-10.2,151.76-13.96v23.26h-500.7Z"/></g></g></g></g><g class="cls-8"><g id="Mask_Group_28"><g id="Group_378" class="cls-10"><g id="Group_51"><path id="Path_658" class="cls-7" d="M392.42,192.02h-3.81v-6.08c3.64.36,3.68.39,3.8,3.87.02.74,0,1.47.01,2.21Z"/><path id="Path_660" class="cls-7" d="M388.61,198.08c3.64.36,3.68.4,3.8,3.87.02.74,0,1.47.01,2.21h-3.81s0-6.08,0-6.08Z"/><path id="Path_661" class="cls-7" d="M388.61,173.8c3.64.36,3.68.4,3.8,3.87.02.74,0,1.47.01,2.21h-3.81s0-6.08,0-6.08Z"/><path id="Path_662" class="cls-7" d="M388.61,161.66c3.64.36,3.68.4,3.8,3.87.02.74,0,1.47.01,2.21h-3.81s0-6.08,0-6.08Z"/><path id="Path_664" class="cls-7" d="M388.61,149.52c3.64.36,3.68.4,3.8,3.87.02.74,0,1.47.01,2.21h-3.81s0-6.08,0-6.08Z"/><path id="Path_665" class="cls-7" d="M388.61,137.38c3.64.36,3.68.4,3.8,3.87.02.74,0,1.47.01,2.21h-3.81s0-6.08,0-6.08Z"/><path id="Path_667" class="cls-7" d="M388.61,125.24c3.64.36,3.68.4,3.8,3.87.02.74,0,1.47.01,2.21h-3.81s0-6.08,0-6.08Z"/><path id="Path_668" class="cls-7" d="M388.61,113.11c3.64.36,3.68.4,3.8,3.87.02.74,0,1.47.01,2.21h-3.81s0-6.08,0-6.08Z"/><path id="Path_670" class="cls-7" d="M388.61,100.97c3.64.36,3.68.4,3.8,3.87.02.74,0,1.47.01,2.21h-3.81s0-6.08,0-6.08Z"/><path id="Path_671" class="cls-7" d="M388.61,88.83c3.64.36,3.68.4,3.8,3.87.02.74,0,1.47.01,2.21h-3.81s0-6.08,0-6.08Z"/><path id="Path_673" class="cls-7" d="M388.61,76.69c3.64.36,3.68.4,3.8,3.87.02.74,0,1.47.01,2.21h-3.81s0-6.08,0-6.08Z"/><path id="Path_674" class="cls-7" d="M388.61,64.55c3.64.36,3.68.4,3.8,3.87.02.74,0,1.47.01,2.21h-3.81s0-6.08,0-6.08Z"/><path id="Path_676" class="cls-7" d="M388.61,52.41c3.64.36,3.68.4,3.8,3.87.02.74,0,1.47.01,2.21h-3.81s0-6.08,0-6.08Z"/><path id="Path_677" class="cls-7" d="M388.61,40.27c3.64.36,3.68.4,3.8,3.87.02.74,0,1.47.01,2.21h-3.81s0-6.08,0-6.08Z"/><path id="Path_679" class="cls-7" d="M388.61,28.13c3.64.36,3.68.4,3.8,3.87.02.74,0,1.47.01,2.21h-3.81s0-6.08,0-6.08Z"/><path id="Path_680" class="cls-7" d="M388.61,15.99c3.64.36,3.68.4,3.8,3.87.02.74,0,1.47.01,2.21h-3.81s0-6.08,0-6.08Z"/><path id="Path_682" class="cls-7" d="M388.61,3.85c3.64.36,3.68.4,3.8,3.87.02.74,0,1.47.01,2.21h-3.81s0-6.08,0-6.08Z"/><path id="Path_943" class="cls-7" d="M398.5,192.03v-6.11l-.03.03q6.07-.05,6.1,6.07l-6.1-.03.04.04Z"/><path id="Path_944" class="cls-7" d="M398.5,198.06q-5.81-.21-6.1-6.07l6.1.03-.04-.04c0,2.04,0,4.07,0,6.11l.03-.03Z"/><path id="Path_945" class="cls-7" d="M392.39,179.86l6.1.03-.04-.04v6.11s.04-.03.04-.03q-5.81-.21-6.1-6.07Z"/><path id="Path_954" class="cls-7" d="M398.49,179.89v-6.11l-.03.03q6.07-.05,6.1,6.07l-6.1-.03.04.04Z"/><path id="Path_955" class="cls-7" d="M392.39,167.72l6.1.03-.04-.04v6.11s.04-.03.04-.03q-5.81-.21-6.1-6.07Z"/><path id="Path_958" class="cls-7" d="M398.49,167.75v-6.11l-.03.03q6.07-.05,6.1,6.07l-6.1-.03.04.04Z"/><path id="Path_959" class="cls-7" d="M392.39,155.58l6.1.03-.04-.04v6.11s.04-.03.04-.03q-5.81-.21-6.1-6.07Z"/><path id="Path_966" class="cls-7" d="M398.49,155.61v-6.11l-.03.03q6.07-.05,6.1,6.07l-6.1-.03.04.04Z"/><path id="Path_967" class="cls-7" d="M392.39,143.44l6.1.03-.04-.04v6.11s.04-.03.04-.03q-5.81-.21-6.1-6.07Z"/><path id="Path_970" class="cls-7" d="M398.49,143.47v-6.11l-.03.03q6.07-.05,6.1,6.07l-6.1-.03.04.04Z"/><path id="Path_971" class="cls-7" d="M392.39,131.3l6.1.03-.04-.04v6.11s.04-.03.04-.03q-5.81-.21-6.1-6.07Z"/><path id="Path_978" class="cls-7" d="M398.49,131.33v-6.11l-.03.03q6.07-.05,6.1,6.07l-6.1-.03.04.04Z"/><path id="Path_979" class="cls-7" d="M392.39,119.16l6.1.03-.04-.04v6.11s.04-.03.04-.03q-5.81-.21-6.1-6.07Z"/><path id="Path_982" class="cls-7" d="M398.49,119.19v-6.11l-.03.03q6.07-.05,6.1,6.07l-6.1-.03.04.04Z"/><path id="Path_983" class="cls-7" d="M392.39,107.02l6.1.03-.04-.04v6.11s.04-.03.04-.03q-5.81-.21-6.1-6.07Z"/><path id="Path_993" class="cls-7" d="M398.49,107.05v-6.11l-.03.03q6.07-.05,6.1,6.07l-6.1-.03.04.04Z"/><path id="Path_994" class="cls-7" d="M392.39,94.88l6.1.03-.04-.04v6.11s.04-.03.04-.03q-5.81-.21-6.1-6.07Z"/><path id="Path_997" class="cls-7" d="M398.49,94.92v-6.11l-.03.03q6.07-.05,6.1,6.07l-6.1-.03.04.04Z"/><path id="Path_998" class="cls-7" d="M392.39,82.74l6.1.03-.04-.04v6.11s.04-.03.04-.03q-5.81-.21-6.1-6.07Z"/><path id="Path_1007" class="cls-7" d="M398.49,82.78v-6.11l-.03.03q6.07-.05,6.1,6.07l-6.1-.03.04.04Z"/><path id="Path_1008" class="cls-7" d="M392.39,70.61l6.1.03-.04-.04v6.11s.04-.03.04-.03q-5.81-.21-6.1-6.07Z"/><path id="Path_1011" class="cls-7" d="M398.49,70.64v-6.11l-.03.03q6.07-.05,6.1,6.07l-6.1-.03.04.04Z"/><path id="Path_1012" class="cls-7" d="M392.39,58.47l6.1.03-.04-.04v6.11s.04-.03.04-.03q-5.81-.21-6.1-6.07Z"/><path id="Path_1022" class="cls-7" d="M398.49,58.5v-6.11l-.03.03q6.07-.05,6.1,6.07l-6.1-.03.04.04Z"/><path id="Path_1023" class="cls-7" d="M392.39,46.33l6.1.03-.04-.04v6.11s.04-.03.04-.03q-5.81-.21-6.1-6.07Z"/><path id="Path_1026" class="cls-7" d="M398.49,46.36v-6.11l-.03.03q6.07-.05,6.1,6.07l-6.1-.03.04.04Z"/><path id="Path_1027" class="cls-7" d="M392.39,34.19l6.1.03-.04-.04v6.11s.04-.03.04-.03q-5.81-.21-6.1-6.07Z"/><path id="Path_1034" class="cls-7" d="M398.49,34.22v-6.11l-.03.03q6.07-.05,6.1,6.07l-6.1-.03.04.04Z"/><path id="Path_1035" class="cls-7" d="M392.39,22.05l6.1.03-.04-.04v6.11s.04-.03.04-.03q-5.81-.21-6.1-6.07Z"/><path id="Path_1038" class="cls-7" d="M398.49,22.08v-6.11l-.03.03q6.07-.05,6.1,6.07l-6.1-.03.04.04Z"/><path id="Path_1039" class="cls-7" d="M392.39,9.91l6.1.03-.04-.04v6.11s.04-.03.04-.03q-5.81-.21-6.1-6.07Z"/><path id="Path_1044" class="cls-7" d="M398.5,3.84q-5.81-.21-6.1-6.07l6.1.03-.04-.04c0,2.04,0,4.07,0,6.11l.03-.03Z"/><path id="Path_1045" class="cls-7" d="M398.49,9.94V3.83l-.03.03q6.07-.05,6.1,6.07l-6.1-.03.04.04Z"/><path id="Path_1046" class="cls-7" d="M398.49,204.17v-6.11l-.03.03q6.07-.05,6.1,6.07l-6.1-.03.04.04Z"/></g></g></g></g><g class="cls-9"><g id="Mask_Group_30"><g id="Group_399"><g id="Group_398" class="cls-11"><g id="Group_330"><g id="Group_230"><path id="Path_10495" class="cls-5" d="M113.38-3.31s-2.31,2.86-3.36,4.08c-.9.98-1.3,2.32-1.11,3.63.33,2.45,2.59,4.17,5.04,3.84.03,0,.05,0,.08-.01,1.64-.19,3.02-1.31,3.55-2.87.63-1.54.32-3.3-.81-4.53-.92-1.08-3.39-4.15-3.39-4.15Z"/><g id="Group_229"><path id="Path_10496" class="cls-5" d="M113.8,21.32c-.04,1.66.88,3.2,2.37,3.94,1.43.83,3.2.76,4.56-.17,2.09-1.32,2.71-4.09,1.39-6.18-.01-.02-.03-.05-.04-.07-.72-1.12-1.9-1.85-3.22-2.01-1.6-.23-5.22-.87-5.22-.87,0,0,.15,3.94.17,5.36Z"/><path id="Path_10497" class="cls-5" d="M113.13,15.96s-3.62.64-5.22.87c-1.32.15-2.5.89-3.22,2.01-1.36,2.07-.79,4.85,1.28,6.21.02.01.04.03.07.04,1.36.93,3.13,1,4.56.17,1.49-.74,2.41-2.28,2.37-3.94,0-1.42.17-5.36.17-5.36Z"/></g><path id="Path_10498" class="cls-5" d="M113.51,11.71s-2.86-2.31-4.08-3.36c-.98-.89-2.32-1.3-3.63-1.11-2.45.33-4.17,2.59-3.84,5.04,0,.03,0,.05.01.08.19,1.64,1.31,3.02,2.87,3.55,1.54.64,3.3.32,4.53-.81,1.08-.92,4.15-3.39,4.15-3.39Z"/><path id="Path_10499" class="cls-5" d="M113.26,11.71s2.86,2.31,4.08,3.36c.98.89,2.32,1.3,3.63,1.11,2.45-.33,4.17-2.59,3.84-5.04,0-.03,0-.05-.01-.08-.19-1.64-1.31-3.02-2.87-3.55-1.54-.63-3.3-.32-4.53.81-1.08.92-4.15,3.39-4.15,3.39Z"/></g><g id="Group_231"><path id="Path_10500" class="cls-5" d="M151.84-.78s-3.65.39-5.26.51c-1.33.06-2.56.72-3.35,1.78-1.5,1.97-1.12,4.78.85,6.28.02.02.04.03.06.05,1.29,1.02,3.06,1.21,4.54.48,1.54-.64,2.56-2.11,2.63-3.77.11-1.42.54-5.33.54-5.33Z"/><path id="Path_10501" class="cls-5" d="M147.88,21.32c-.04,1.66.88,3.2,2.37,3.94,1.43.83,3.2.76,4.56-.17,2.09-1.32,2.71-4.09,1.39-6.18-.01-.02-.03-.04-.04-.07-.72-1.12-1.9-1.85-3.22-2.01-1.6-.23-5.22-.87-5.22-.87,0,0,.16,3.94.17,5.36Z"/><path id="Path_10502" class="cls-5" d="M145.83,15.96s-3.62.64-5.22.87c-1.32.15-2.5.89-3.22,2.01-1.36,2.07-.79,4.84,1.27,6.21.02.01.05.03.07.04,1.36.93,3.13,1,4.56.17,1.49-.74,2.41-2.28,2.37-3.94,0-1.42.17-5.36.17-5.36Z"/><path id="Path_10503" class="cls-5" d="M151.66,6.78s.39,3.65.51,5.26c.06,1.33.72,2.56,1.78,3.35,1.97,1.5,4.78,1.12,6.28-.85.02-.02.03-.04.05-.06,1.02-1.29,1.21-3.06.48-4.54-.64-1.54-2.11-2.56-3.77-2.63-1.42-.11-5.33-.54-5.33-.54Z"/><path id="Path_10504" class="cls-5" d="M136.79,7.32c-1.66.07-3.13,1.1-3.77,2.63-.73,1.48-.54,3.24.48,4.54,1.47,1.99,4.27,2.42,6.26.96.02-.02.04-.03.06-.05,1.06-.8,1.72-2.03,1.78-3.35.12-1.61.51-5.26.51-5.26,0,0-3.92.43-5.33.54Z"/></g><g id="Group_233"><path id="Path_10505" class="cls-5" d="M79.76,10.09s2.31-2.86,3.36-4.08c.89-.98,1.3-2.32,1.11-3.63-.33-2.45-2.59-4.17-5.04-3.84-.03,0-.05,0-.08.01-1.64.19-3.02,1.31-3.55,2.87-.64,1.54-.32,3.3.81,4.53.92,1.08,3.39,4.15,3.39,4.15Z"/><g id="Group_232"><path id="Path_10506" class="cls-5" d="M80.18,20.9c-.04,1.66.88,3.2,2.37,3.94,1.43.83,3.2.76,4.56-.17,2.09-1.32,2.71-4.09,1.39-6.18-.01-.02-.03-.04-.04-.07-.72-1.12-1.9-1.85-3.22-2.01-1.6-.23-5.22-.87-5.22-.87,0,0,.16,3.94.17,5.36Z"/><path id="Path_10507" class="cls-5" d="M79.51,15.55s-3.62.64-5.22.87c-1.32.15-2.5.89-3.22,2.01-1.36,2.07-.79,4.85,1.28,6.21.02.01.04.03.07.04,1.36.93,3.13,1,4.56.17,1.49-.74,2.41-2.28,2.37-3.94,0-1.42.17-5.36.17-5.36Z"/></g><path id="Path_10508" class="cls-5" d="M76.35,9.71c.04-1.66-.88-3.2-2.37-3.94-1.43-.83-3.2-.76-4.56.17-2.09,1.33-2.71,4.09-1.38,6.18.01.02.03.04.04.07.72,1.12,1.9,1.85,3.22,2.01,1.6.23,5.22.87,5.22.87,0,0-.16-3.94-.17-5.36Z"/><path id="Path_10509" class="cls-5" d="M83.23,15.07s3.62-.64,5.22-.87c1.32-.15,2.5-.89,3.22-2.01,1.36-2.07.79-4.85-1.28-6.21-.02-.01-.04-.03-.07-.04-1.36-.93-3.13-1-4.56-.17-1.49.74-2.41,2.28-2.37,3.94,0,1.42-.17,5.36-.17,5.36Z"/></g><g id="Group_234"><path id="Path_10510" class="cls-5" d="M180.35,10.37s2.31-2.86,3.36-4.08c.89-.98,1.3-2.32,1.11-3.63-.33-2.45-2.59-4.17-5.04-3.84-.03,0-.05,0-.08.01-1.64.19-3.02,1.31-3.55,2.87-.63,1.54-.32,3.3.81,4.53.92,1.08,3.39,4.15,3.39,4.15Z"/><path id="Path_10511" class="cls-5" d="M185.79,20.9c-.04,1.66.88,3.2,2.37,3.94,1.43.83,3.2.76,4.56-.17,2.09-1.32,2.71-4.09,1.39-6.18-.01-.02-.03-.04-.04-.07-.72-1.12-1.9-1.85-3.22-2.01-1.6-.23-5.22-.87-5.22-.87,0,0,.16,3.94.17,5.36Z"/><path id="Path_10512" class="cls-5" d="M175.17,15.55s-3.62.64-5.22.87c-1.32.15-2.5.89-3.22,2.01-1.36,2.07-.79,4.84,1.28,6.21.02.01.04.03.07.04,1.36.93,3.13,1,4.56.17,1.49-.74,2.41-2.28,2.37-3.94,0-1.42.17-5.36.17-5.36Z"/><path id="Path_10513" class="cls-5" d="M175,1.55c.04-1.66-.88-3.2-2.37-3.94-1.43-.83-3.2-.76-4.56.17-2.09,1.32-2.71,4.09-1.39,6.18.01.02.03.04.04.07.72,1.12,1.9,1.85,3.22,2.01,1.6.23,5.22.87,5.22.87,0,0-.16-3.94-.17-5.36Z"/><path id="Path_10514" class="cls-5" d="M185.62,6.91s3.62-.64,5.22-.87c1.32-.15,2.5-.89,3.22-2.01,1.36-2.07.79-4.85-1.28-6.21-.02-.01-.04-.03-.07-.04-1.36-.93-3.13-1-4.56-.17-1.49.74-2.41,2.28-2.37,3.94,0,1.42-.17,5.36-.17,5.36Z"/></g><g id="Group_235"><path id="Path_10515" class="cls-5" d="M7.33-2.99s.39,3.65.51,5.26c.06,1.33.72,2.56,1.78,3.35,1.97,1.5,4.78,1.12,6.28-.85.02-.02.03-.04.05-.06,1.02-1.29,1.21-3.06.48-4.54-.64-1.54-2.11-2.56-3.77-2.63-1.41-.11-5.33-.54-5.33-.54Z"/><path id="Path_10516" class="cls-5" d="M14.34,20.9c-.04,1.66.88,3.2,2.37,3.94,1.43.83,3.2.76,4.56-.17,2.09-1.33,2.71-4.09,1.38-6.18-.01-.02-.03-.04-.04-.07-.72-1.12-1.9-1.85-3.22-2.01-1.6-.23-5.22-.87-5.22-.87,0,0,.16,3.94.17,5.36Z"/><path id="Path_10517" class="cls-5" d="M11.19,15.55s-3.62.64-5.22.87c-1.32.15-2.5.89-3.22,2.01-1.36,2.07-.79,4.84,1.28,6.21.02.01.04.03.07.04,1.36.93,3.13,1,4.56.17,1.49-.74,2.41-2.28,2.37-3.94,0-1.42.17-5.36.17-5.36Z"/><path id="Path_10518" class="cls-5" d="M7.47,5.98c.04-1.66-.88-3.2-2.37-3.94-1.43-.83-3.2-.76-4.56.17-2.09,1.33-2.71,4.09-1.38,6.18.01.02.03.04.04.07.72,1.12,1.9,1.85,3.22,2.01,1.6.23,5.22.87,5.22.87,0,0-.16-3.94-.17-5.36Z"/><path id="Path_10519" class="cls-5" d="M18.09,11.34s3.62-.64,5.22-.87c1.32-.15,2.5-.89,3.22-2.01,1.36-2.07.79-4.85-1.28-6.21-.02-.01-.04-.03-.07-.04-1.36-.93-3.13-1-4.56-.17-1.49.74-2.41,2.28-2.37,3.94,0,1.42-.17,5.36-.17,5.36Z"/></g><g id="Group_236"><path id="Path_10520" class="cls-5" d="M46.28-2.96s-2.31,2.86-3.36,4.08c-.89.98-1.3,2.32-1.11,3.63.33,2.45,2.59,4.17,5.04,3.84.03,0,.05,0,.08-.01,1.64-.19,3.02-1.31,3.55-2.87.63-1.54.32-3.3-.81-4.53-.92-1.08-3.39-4.15-3.39-4.15Z"/><path id="Path_10521" class="cls-5" d="M49.88,20.9c-.04,1.66.88,3.2,2.37,3.94,1.43.83,3.2.76,4.56-.17,2.09-1.32,2.71-4.09,1.39-6.18-.01-.02-.03-.04-.04-.07-.72-1.12-1.9-1.85-3.22-2.01-1.6-.23-5.22-.87-5.22-.87,0,0,.16,3.94.17,5.36Z"/><path id="Path_10522" class="cls-5" d="M42.99,15.55s-3.62.64-5.22.87c-1.32.15-2.5.89-3.22,2.01-1.36,2.07-.79,4.84,1.28,6.21.02.01.04.03.07.04,1.36.93,3.13,1,4.56.17,1.49-.74,2.41-2.28,2.37-3.94,0-1.42.17-5.36.17-5.36Z"/><path id="Path_10523" class="cls-5" d="M42.87,9.71c.04-1.66-.88-3.2-2.37-3.94-1.43-.83-3.2-.76-4.56.17-2.09,1.32-2.71,4.09-1.39,6.18.01.02.03.04.04.07.72,1.12,1.9,1.85,3.22,2.01,1.6.23,5.22.87,5.22.87,0,0-.16-3.94-.17-5.36Z"/><path id="Path_10524" class="cls-5" d="M49.75,15.07s3.62-.64,5.22-.87c1.32-.15,2.5-.89,3.22-2.01,1.36-2.07.79-4.85-1.28-6.21-.02-.01-.04-.03-.07-.04-1.36-.93-3.13-1-4.56-.17-1.49.74-2.41,2.28-2.37,3.94,0,1.42-.17,5.36-.17,5.36Z"/></g><g id="Group_238"><path id="Path_10525" class="cls-5" d="M318.07-3.31s-2.31,2.86-3.36,4.08c-.89.98-1.3,2.32-1.11,3.63.33,2.45,2.59,4.17,5.04,3.84.03,0,.05,0,.08-.01,1.64-.19,3.02-1.31,3.55-2.87.63-1.54.32-3.3-.81-4.53-.92-1.08-3.39-4.15-3.39-4.15Z"/><g id="Group_237"><path id="Path_10526" class="cls-5" d="M318.49,21.32c-.04,1.66.88,3.2,2.37,3.94,1.43.83,3.2.76,4.56-.17,2.09-1.32,2.71-4.09,1.39-6.18-.01-.02-.03-.05-.04-.07-.72-1.12-1.9-1.85-3.22-2.01-1.6-.23-5.22-.87-5.22-.87,0,0,.16,3.94.17,5.36Z"/><path id="Path_10527" class="cls-5" d="M317.82,15.96s-3.62.64-5.22.87c-1.32.15-2.5.89-3.22,2.01-1.36,2.07-.79,4.85,1.28,6.21.02.01.04.03.07.04,1.36.93,3.13,1,4.56.17,1.49-.74,2.41-2.28,2.37-3.94,0-1.42.17-5.36.17-5.36Z"/></g><path id="Path_10528" class="cls-5" d="M318.19,11.71s-2.86-2.31-4.08-3.36c-.98-.89-2.32-1.3-3.63-1.11-2.45.33-4.17,2.59-3.84,5.04,0,.03,0,.05.01.08.19,1.64,1.31,3.02,2.87,3.55,1.54.64,3.3.32,4.53-.81,1.08-.92,4.15-3.39,4.15-3.39Z"/><path id="Path_10529" class="cls-5" d="M317.94,11.71s2.86,2.31,4.08,3.36c.98.89,2.32,1.3,3.63,1.11,2.45-.33,4.17-2.59,3.84-5.04,0-.03,0-.05-.01-.08-.19-1.64-1.31-3.02-2.87-3.55-1.54-.64-3.3-.32-4.53.81-1.08.92-4.15,3.39-4.15,3.39Z"/></g><g id="Group_239"><path id="Path_10530" class="cls-5" d="M356.52-.78s-3.65.39-5.26.51c-1.33.06-2.56.72-3.36,1.78-1.5,1.97-1.12,4.78.85,6.28.02.02.04.03.06.05,1.29,1.02,3.06,1.21,4.54.48,1.54-.64,2.56-2.11,2.63-3.77.11-1.42.54-5.33.54-5.33Z"/><path id="Path_10531" class="cls-5" d="M352.57,21.32c-.04,1.66.88,3.2,2.37,3.94,1.43.83,3.2.76,4.56-.17,2.09-1.32,2.71-4.09,1.39-6.18-.01-.02-.03-.04-.04-.07-.72-1.12-1.9-1.85-3.22-2.01-1.6-.23-5.22-.87-5.22-.87,0,0,.16,3.94.17,5.36Z"/><path id="Path_10532" class="cls-5" d="M350.51,15.96s-3.62.64-5.22.87c-1.32.15-2.5.89-3.22,2.01-1.36,2.07-.79,4.85,1.28,6.21.02.01.04.03.07.04,1.36.93,3.13,1,4.56.17,1.49-.74,2.41-2.28,2.37-3.94,0-1.42.17-5.36.17-5.36Z"/><path id="Path_10533" class="cls-5" d="M356.34,6.78s.39,3.65.52,5.26c.06,1.33.72,2.56,1.78,3.35,1.97,1.5,4.78,1.12,6.28-.85.02-.02.03-.04.05-.06,1.02-1.29,1.21-3.06.48-4.54-.64-1.54-2.11-2.56-3.77-2.63-1.41-.11-5.33-.54-5.33-.54Z"/><path id="Path_10534" class="cls-5" d="M341.47,7.32c-1.66.07-3.13,1.1-3.77,2.63-.73,1.48-.54,3.24.48,4.54,1.46,1.99,4.27,2.42,6.26.96.02-.02.04-.03.06-.05,1.06-.8,1.72-2.03,1.78-3.35.12-1.61.51-5.26.51-5.26,0,0-3.92.43-5.33.54Z"/></g><g id="Group_241"><path id="Path_10535" class="cls-5" d="M284.44,10.09s2.31-2.86,3.36-4.08c.89-.98,1.3-2.32,1.11-3.63-.33-2.45-2.59-4.17-5.04-3.84-.03,0-.05,0-.08.01-1.64.19-3.02,1.31-3.55,2.87-.63,1.54-.32,3.3.81,4.53.92,1.08,3.39,4.15,3.39,4.15Z"/><g id="Group_240"><path id="Path_10536" class="cls-5" d="M284.86,20.9c-.04,1.66.88,3.2,2.37,3.94,1.43.83,3.2.76,4.56-.17,2.09-1.33,2.71-4.09,1.38-6.18-.01-.02-.03-.04-.04-.07-.72-1.12-1.9-1.85-3.22-2.01-1.6-.23-5.22-.87-5.22-.87,0,0,.16,3.94.17,5.36Z"/><path id="Path_10537" class="cls-5" d="M284.19,15.55s-3.62.64-5.22.87c-1.32.15-2.5.89-3.22,2.01-1.36,2.07-.79,4.84,1.28,6.21.02.01.04.03.07.04,1.36.93,3.13,1,4.56.17,1.49-.74,2.41-2.28,2.37-3.94,0-1.42.17-5.36.17-5.36Z"/></g><path id="Path_10538" class="cls-5" d="M281.03,9.71c.04-1.66-.88-3.2-2.37-3.94-1.43-.83-3.2-.76-4.56.17-2.09,1.33-2.71,4.09-1.38,6.18.01.02.03.04.04.07.72,1.12,1.9,1.85,3.22,2.01,1.6.23,5.22.87,5.22.87,0,0-.16-3.94-.17-5.36Z"/><path id="Path_10539" class="cls-5" d="M287.92,15.07s3.62-.64,5.22-.87c1.32-.15,2.5-.89,3.22-2.01,1.36-2.07.79-4.85-1.28-6.21-.02-.01-.04-.03-.07-.04-1.36-.93-3.13-1-4.56-.17-1.49.74-2.41,2.28-2.37,3.94,0,1.42-.17,5.36-.17,5.36Z"/></g><g id="Group_242"><path id="Path_10540" class="cls-5" d="M385.03,10.37s2.31-2.86,3.36-4.08c.89-.98,1.3-2.32,1.11-3.63-.33-2.45-2.59-4.17-5.04-3.84-.03,0-.05,0-.08.01-1.64.19-3.02,1.31-3.55,2.87-.64,1.54-.32,3.3.81,4.53.92,1.08,3.39,4.15,3.39,4.15Z"/><path id="Path_10541" class="cls-5" d="M390.47,20.9c-.04,1.66.88,3.2,2.37,3.94,1.43.83,3.2.76,4.56-.17,2.09-1.33,2.71-4.09,1.38-6.18-.01-.02-.03-.04-.04-.07-.72-1.12-1.9-1.85-3.22-2.01-1.6-.23-5.22-.87-5.22-.87,0,0,.16,3.94.17,5.36Z"/><path id="Path_10542" class="cls-5" d="M379.85,15.55s-3.62.64-5.22.87c-1.32.15-2.5.89-3.22,2.01-1.36,2.07-.79,4.84,1.28,6.21.02.01.04.03.07.04,1.36.93,3.13,1,4.56.17,1.49-.74,2.41-2.28,2.37-3.94,0-1.42.17-5.36.17-5.36Z"/><path id="Path_10543" class="cls-5" d="M379.68,1.55c.04-1.66-.88-3.2-2.37-3.94-1.43-.83-3.2-.76-4.56.17-2.09,1.32-2.71,4.09-1.39,6.18.01.02.03.04.04.07.72,1.12,1.9,1.85,3.22,2.01,1.6.23,5.22.87,5.22.87,0,0-.16-3.94-.17-5.36Z"/><path id="Path_10544" class="cls-5" d="M390.3,6.91s3.62-.64,5.22-.87c1.32-.15,2.5-.89,3.22-2.01,1.36-2.07.79-4.85-1.28-6.21-.02-.01-.04-.03-.07-.04-1.36-.93-3.13-1-4.56-.17-1.49.74-2.41,2.28-2.37,3.94,0,1.42-.17,5.36-.17,5.36Z"/></g><g id="Group_243"><path id="Path_10545" class="cls-5" d="M212.02-2.99s.39,3.65.51,5.26c.06,1.33.72,2.56,1.78,3.35,1.97,1.5,4.78,1.12,6.28-.85.02-.02.03-.04.05-.06,1.02-1.29,1.21-3.06.48-4.54-.64-1.54-2.11-2.56-3.77-2.63-1.42-.11-5.33-.54-5.33-.54Z"/><path id="Path_10546" class="cls-5" d="M219.03,20.9c-.04,1.66.88,3.2,2.37,3.94,1.43.83,3.2.76,4.56-.17,2.09-1.32,2.71-4.09,1.39-6.18-.01-.02-.03-.04-.04-.07-.72-1.12-1.9-1.85-3.22-2.01-1.6-.23-5.22-.87-5.22-.87,0,0,.16,3.94.17,5.36Z"/><path id="Path_10547" class="cls-5" d="M215.86,15.55s-3.62.64-5.22.87c-1.32.15-2.5.89-3.22,2.01-1.36,2.07-.79,4.85,1.28,6.21.02.01.04.03.07.04,1.36.93,3.13,1,4.56.17,1.49-.74,2.41-2.28,2.37-3.94.01-1.42.17-5.36.17-5.36Z"/><path id="Path_10548" class="cls-5" d="M212.15,5.98c.04-1.66-.88-3.2-2.37-3.94-1.43-.83-3.2-.76-4.56.17-2.09,1.33-2.71,4.09-1.38,6.18.01.02.03.04.04.07.72,1.12,1.9,1.85,3.22,2.01,1.6.23,5.22.87,5.22.87,0,0-.16-3.94-.17-5.36Z"/><path id="Path_10549" class="cls-5" d="M222.77,11.34s3.62-.64,5.22-.87c1.32-.15,2.5-.89,3.22-2.01,1.36-2.07.79-4.85-1.28-6.21-.02-.01-.04-.03-.07-.04-1.36-.93-3.13-1-4.56-.17-1.49.74-2.41,2.28-2.37,3.94,0,1.42-.17,5.36-.17,5.36Z"/></g><g id="Group_244"><path id="Path_10550" class="cls-5" d="M250.96-2.96s-2.31,2.86-3.36,4.08c-.9.98-1.3,2.32-1.11,3.63.33,2.45,2.59,4.17,5.04,3.84.03,0,.05,0,.08-.01,1.64-.19,3.02-1.31,3.55-2.87.64-1.54.32-3.3-.81-4.53-.92-1.08-3.39-4.15-3.39-4.15Z"/><path id="Path_10551" class="cls-5" d="M254.56,20.9c-.04,1.66.88,3.2,2.37,3.94,1.43.83,3.2.76,4.56-.17,2.09-1.32,2.71-4.09,1.39-6.18-.01-.02-.03-.04-.04-.07-.72-1.12-1.9-1.85-3.22-2.01-1.6-.23-5.22-.87-5.22-.87,0,0,.16,3.94.17,5.36Z"/><path id="Path_10552" class="cls-5" d="M247.67,15.55s-3.62.64-5.22.87c-1.32.15-2.5.89-3.22,2.01-1.36,2.07-.79,4.84,1.27,6.21.02.01.04.03.07.04,1.36.93,3.13,1,4.56.17,1.49-.74,2.41-2.28,2.37-3.94.01-1.42.17-5.36.17-5.36Z"/><path id="Path_10553" class="cls-5" d="M247.55,9.71c.04-1.66-.88-3.2-2.37-3.94-1.43-.83-3.2-.76-4.56.17-2.09,1.32-2.71,4.09-1.39,6.18.01.02.03.04.04.07.72,1.12,1.9,1.85,3.22,2.01,1.6.23,5.22.87,5.22.87,0,0-.16-3.94-.17-5.36Z"/><path id="Path_10554" class="cls-5" d="M254.43,15.07s3.62-.64,5.22-.87c1.32-.15,2.5-.89,3.22-2.01,1.36-2.07.79-4.85-1.28-6.21-.02-.01-.04-.03-.07-.04-1.36-.93-3.13-1-4.56-.17-1.49.74-2.41,2.28-2.37,3.94,0,1.42-.17,5.36-.17,5.36Z"/></g><g id="Group_261"><g id="Group_246"><path id="Path_10555" class="cls-5" d="M281.17,36.34c-1.13,1.22-1.44,2.99-.81,4.53.53,1.56,1.91,2.67,3.55,2.87,2.45.37,4.73-1.3,5.11-3.75,0-.03,0-.05.01-.08.19-1.32-.22-2.65-1.11-3.63-1.05-1.23-3.36-4.08-3.36-4.08,0,0-2.47,3.07-3.39,4.15Z"/><g id="Group_245"><path id="Path_10556" class="cls-5" d="M284.31,51.46s-3.62.64-5.22.87c-1.32.15-2.5.89-3.22,2.01-1.36,2.07-.79,4.85,1.28,6.21.02.01.04.03.07.04,1.36.93,3.13,1,4.56.17,1.49-.74,2.41-2.28,2.37-3.94,0-1.42.17-5.36.17-5.36Z"/><path id="Path_10557" class="cls-5" d="M284.98,56.81c-.04,1.66.88,3.2,2.37,3.94,1.43.83,3.2.76,4.56-.17,2.09-1.33,2.71-4.09,1.38-6.18-.01-.02-.03-.04-.04-.07-.72-1.12-1.9-1.85-3.22-2.01-1.6-.23-5.22-.87-5.22-.87,0,0,.16,3.94.17,5.36Z"/></g><path id="Path_10558" class="cls-5" d="M288.58,50.6c1.22,1.13,2.99,1.44,4.53.81,1.56-.53,2.67-1.91,2.87-3.55.37-2.45-1.3-4.73-3.75-5.11-.03,0-.05,0-.08-.01-1.32-.19-2.65.22-3.63,1.11-1.23,1.05-4.08,3.36-4.08,3.36,0,0,3.07,2.47,4.15,3.39Z"/><path id="Path_10559" class="cls-5" d="M280.54,43.82c-1.22-1.13-2.99-1.44-4.53-.81-1.56.53-2.67,1.91-2.87,3.55-.37,2.45,1.31,4.73,3.75,5.11.03,0,.05,0,.08.01,1.32.19,2.65-.22,3.63-1.11,1.22-1.05,4.08-3.36,4.08-3.36,0,0-3.07-2.47-4.15-3.39Z"/></g><g id="Group_247"><path id="Path_10560" class="cls-5" d="M246.64,40.05c.07,1.66,1.1,3.13,2.63,3.77,1.48.73,3.24.54,4.54-.48,1.99-1.46,2.42-4.27.96-6.26-.02-.02-.03-.04-.05-.06-.8-1.06-2.03-1.72-3.36-1.78-1.61-.12-5.26-.51-5.26-.51,0,0,.43,3.92.54,5.33Z"/><path id="Path_10561" class="cls-5" d="M250.23,51.46s-3.62.64-5.22.87c-1.32.15-2.5.89-3.22,2.01-1.36,2.07-.79,4.85,1.28,6.21.02.01.04.03.07.04,1.36.93,3.13,1,4.56.17,1.49-.74,2.41-2.28,2.37-3.94,0-1.42.17-5.36.17-5.36Z"/><path id="Path_10562" class="cls-5" d="M252.28,56.81c-.04,1.66.88,3.2,2.37,3.94,1.43.83,3.2.76,4.56-.17,2.09-1.33,2.71-4.09,1.38-6.18-.01-.02-.03-.04-.04-.07-.72-1.12-1.9-1.85-3.22-2.01-1.6-.23-5.22-.87-5.22-.87,0,0,.16,3.94.17,5.36Z"/><path id="Path_10563" class="cls-5" d="M240.95,42.81c-1.66.07-3.13,1.1-3.77,2.63-.73,1.48-.54,3.25.48,4.54,1.46,1.99,4.27,2.42,6.26.96.02-.02.04-.03.06-.05,1.06-.8,1.72-2.03,1.78-3.36.12-1.61.51-5.26.51-5.26,0,0-3.92.43-5.33.54Z"/><path id="Path_10564" class="cls-5" d="M255.82,42.28s.39,3.65.51,5.26c.06,1.33.72,2.56,1.78,3.36,1.97,1.5,4.78,1.12,6.28-.85.02-.02.03-.04.05-.06,1.02-1.29,1.21-3.06.48-4.54-.64-1.54-2.11-2.56-3.77-2.63-1.42-.11-5.33-.54-5.33-.54Z"/></g><g id="Group_249"><path id="Path_10565" class="cls-5" d="M321.57,41.43c1.13-1.22,1.44-2.99.81-4.53-.53-1.56-1.91-2.67-3.55-2.87-2.45-.37-4.73,1.31-5.11,3.75,0,.03,0,.05-.01.08-.19,1.32.22,2.65,1.11,3.63,1.05,1.23,3.36,4.08,3.36,4.08,0,0,2.47-3.07,3.39-4.15Z"/><g id="Group_248"><path id="Path_10566" class="cls-5" d="M317.93,51.04s-3.62.64-5.22.87c-1.32.15-2.5.89-3.22,2.01-1.36,2.07-.79,4.85,1.28,6.21.02.01.04.03.07.04,1.36.93,3.13,1,4.56.17,1.49-.74,2.41-2.28,2.37-3.94,0-1.42.17-5.36.17-5.36Z"/><path id="Path_10567" class="cls-5" d="M318.6,56.4c-.04,1.66.88,3.2,2.37,3.94,1.43.83,3.2.76,4.56-.17,2.09-1.32,2.71-4.09,1.39-6.18-.01-.02-.03-.04-.04-.07-.72-1.12-1.9-1.85-3.22-2.01-1.6-.23-5.22-.87-5.22-.87,0,0,.16,3.94.17,5.36Z"/></g><path id="Path_10568" class="cls-5" d="M321.42,50.56s3.62-.64,5.22-.87c1.32-.15,2.5-.89,3.22-2.01,1.36-2.07.79-4.85-1.28-6.21-.02-.01-.04-.03-.07-.04-1.36-.93-3.13-1-4.56-.17-1.49.74-2.41,2.28-2.37,3.94,0,1.42-.17,5.36-.17,5.36Z"/><path id="Path_10569" class="cls-5" d="M314.54,45.2c.04-1.66-.88-3.2-2.37-3.94-1.43-.83-3.2-.76-4.56.17-2.09,1.32-2.71,4.09-1.39,6.18.01.02.03.04.04.07.72,1.12,1.9,1.85,3.22,2.01,1.6.23,5.22.87,5.22.87,0,0-.16-3.94-.17-5.36Z"/></g><g id="Group_250"><path id="Path_10570" class="cls-5" d="M220.98,41.71c1.13-1.22,1.44-2.99.81-4.53-.53-1.56-1.91-2.67-3.55-2.87-2.45-.37-4.73,1.3-5.11,3.75,0,.03,0,.05-.01.08-.19,1.32.22,2.65,1.12,3.63,1.05,1.23,3.36,4.09,3.36,4.09,0,0,2.47-3.07,3.39-4.15Z"/><path id="Path_10571" class="cls-5" d="M212.32,51.04s-3.62.64-5.22.87c-1.32.15-2.5.89-3.22,2.01-1.36,2.07-.79,4.84,1.27,6.21.02.01.05.03.07.04,1.36.93,3.13,1,4.56.17,1.49-.74,2.41-2.28,2.37-3.94,0-1.42.17-5.36.17-5.36Z"/><path id="Path_10572" class="cls-5" d="M222.94,56.4c-.04,1.66.88,3.2,2.37,3.94,1.43.83,3.2.76,4.56-.17,2.09-1.32,2.71-4.09,1.39-6.18-.01-.02-.03-.05-.04-.07-.72-1.12-1.9-1.85-3.22-2.01-1.6-.23-5.22-.87-5.22-.87,0,0,.16,3.94.17,5.36Z"/><path id="Path_10573" class="cls-5" d="M222.77,42.4s3.62-.64,5.22-.87c1.32-.15,2.5-.89,3.22-2.01,1.36-2.07.79-4.85-1.28-6.21-.02-.01-.04-.03-.07-.04-1.36-.93-3.13-1-4.56-.17-1.49.74-2.41,2.28-2.37,3.94,0,1.42-.17,5.36-.17,5.36Z"/><path id="Path_10574" class="cls-5" d="M212.15,37.04c.04-1.66-.88-3.2-2.37-3.94-1.43-.83-3.2-.76-4.56.17-2.09,1.33-2.71,4.09-1.38,6.18.01.02.03.04.04.07.72,1.12,1.9,1.85,3.22,2.01,1.6.23,5.22.87,5.22.87,0,0-.16-3.94-.17-5.36Z"/></g><g id="Group_251"><path id="Path_10575" class="cls-5" d="M385.28,33.04c-1.66.07-3.13,1.1-3.77,2.63-.73,1.48-.54,3.25.48,4.54,1.46,1.99,4.27,2.42,6.26.96.02-.02.04-.03.06-.05,1.06-.8,1.72-2.03,1.78-3.35.12-1.61.51-5.26.51-5.26,0,0-3.92.43-5.33.54Z"/><path id="Path_10576" class="cls-5" d="M383.77,51.04s-3.62.64-5.22.87c-1.32.15-2.5.89-3.22,2.01-1.36,2.07-.79,4.85,1.28,6.21.02.01.04.03.07.04,1.36.93,3.13,1,4.56.17,1.49-.74,2.41-2.28,2.37-3.94,0-1.42.17-5.36.17-5.36Z"/><path id="Path_10577" class="cls-5" d="M386.93,56.4c-.04,1.66.88,3.2,2.37,3.94,1.43.83,3.2.76,4.56-.17,2.09-1.32,2.71-4.09,1.39-6.18-.01-.02-.03-.05-.04-.07-.72-1.12-1.9-1.85-3.22-2.01-1.6-.23-5.22-.87-5.22-.87,0,0,.16,3.94.17,5.36Z"/><path id="Path_10578" class="cls-5" d="M390.3,46.83s3.62-.64,5.22-.87c1.32-.15,2.5-.89,3.22-2.01,1.36-2.07.79-4.85-1.28-6.21-.02-.01-.04-.03-.07-.04-1.36-.93-3.13-1-4.56-.17-1.49.74-2.41,2.28-2.37,3.94,0,1.42-.17,5.36-.17,5.36Z"/><path id="Path_10579" class="cls-5" d="M379.68,41.47c.04-1.66-.88-3.2-2.37-3.94-1.43-.83-3.2-.76-4.56.17-2.09,1.32-2.71,4.09-1.39,6.18.01.02.03.04.04.07.72,1.12,1.9,1.85,3.22,2.01,1.6.23,5.22.87,5.22.87,0,0-.16-3.94-.17-5.36Z"/></g><g id="Group_252"><path id="Path_10580" class="cls-5" d="M348.27,36.68c-1.13,1.22-1.44,2.99-.81,4.53.53,1.56,1.91,2.67,3.55,2.87,2.45.37,4.73-1.31,5.11-3.75,0-.03,0-.05.01-.08.19-1.32-.22-2.65-1.11-3.63-1.05-1.23-3.36-4.08-3.36-4.08,0,0-2.47,3.07-3.39,4.15Z"/><path id="Path_10581" class="cls-5" d="M348.23,51.04s-3.62.64-5.22.87c-1.32.15-2.5.89-3.22,2.01-1.36,2.07-.79,4.84,1.27,6.21.02.01.05.03.07.04,1.36.93,3.13,1,4.56.17,1.49-.74,2.41-2.28,2.37-3.94,0-1.42.17-5.36.17-5.36Z"/><path id="Path_10582" class="cls-5" d="M355.13,56.4c-.04,1.66.88,3.2,2.37,3.94,1.43.83,3.2.76,4.56-.17,2.09-1.32,2.71-4.09,1.39-6.18-.01-.02-.03-.04-.04-.07-.72-1.12-1.9-1.85-3.22-2.01-1.6-.23-5.22-.87-5.22-.87,0,0,.16,3.94.17,5.36Z"/><path id="Path_10583" class="cls-5" d="M354.9,50.56s3.62-.64,5.22-.87c1.32-.15,2.5-.89,3.22-2.01,1.36-2.07.79-4.85-1.28-6.21-.02-.01-.04-.03-.07-.04-1.36-.93-3.13-1-4.56-.17-1.49.74-2.41,2.28-2.37,3.94,0,1.42-.17,5.36-.17,5.36Z"/><path id="Path_10584" class="cls-5" d="M348.02,45.2c.04-1.66-.88-3.2-2.37-3.94-1.43-.83-3.2-.76-4.56.17-2.09,1.33-2.71,4.09-1.38,6.18.01.02.03.04.04.07.72,1.12,1.9,1.85,3.22,2.01,1.6.23,5.22.87,5.22.87,0,0-.16-3.94-.17-5.36Z"/></g><g id="Group_254"><path id="Path_10585" class="cls-5" d="M76.48,36.34c-1.13,1.22-1.44,2.99-.8,4.53.53,1.56,1.91,2.67,3.55,2.87,2.45.38,4.73-1.3,5.11-3.75,0-.03,0-.05.01-.08.19-1.32-.22-2.65-1.11-3.63-1.05-1.23-3.36-4.08-3.36-4.08,0,0-2.47,3.07-3.39,4.15Z"/><g id="Group_253"><path id="Path_10586" class="cls-5" d="M79.63,51.46s-3.62.64-5.22.87c-1.32.15-2.5.89-3.22,2.01-1.36,2.07-.79,4.85,1.28,6.21.02.01.04.03.07.04,1.36.93,3.13,1,4.56.17,1.49-.74,2.41-2.28,2.37-3.94,0-1.42.17-5.36.17-5.36Z"/><path id="Path_10587" class="cls-5" d="M80.3,56.81c-.04,1.66.88,3.2,2.37,3.94,1.43.83,3.2.76,4.56-.17,2.09-1.33,2.71-4.09,1.38-6.18-.01-.02-.03-.04-.04-.07-.72-1.12-1.9-1.85-3.22-2.01-1.6-.23-5.22-.87-5.22-.87,0,0,.16,3.94.17,5.36Z"/></g><path id="Path_10588" class="cls-5" d="M83.9,50.6c1.22,1.13,2.99,1.44,4.53.81,1.56-.53,2.67-1.91,2.87-3.55.37-2.45-1.3-4.73-3.75-5.11-.03,0-.05,0-.08-.01-1.32-.19-2.65.22-3.63,1.11-1.23,1.05-4.09,3.36-4.09,3.36,0,0,3.08,2.47,4.15,3.39Z"/><path id="Path_10589" class="cls-5" d="M75.86,43.82c-1.22-1.13-2.99-1.44-4.53-.81-1.56.53-2.67,1.91-2.87,3.55-.37,2.45,1.31,4.73,3.75,5.11.03,0,.05,0,.08.01,1.32.19,2.65-.22,3.63-1.11,1.22-1.05,4.08-3.36,4.08-3.36,0,0-3.07-2.47-4.15-3.39Z"/></g><g id="Group_255"><path id="Path_10590" class="cls-5" d="M41.95,40.05c.07,1.66,1.1,3.13,2.63,3.77,1.48.73,3.25.54,4.54-.48,1.99-1.46,2.42-4.27.96-6.26-.02-.02-.03-.04-.05-.06-.8-1.06-2.03-1.72-3.36-1.78-1.61-.12-5.26-.51-5.26-.51,0,0,.43,3.92.54,5.33Z"/><path id="Path_10591" class="cls-5" d="M45.55,51.46s-3.62.64-5.22.87c-1.32.15-2.5.89-3.22,2.01-1.36,2.07-.79,4.85,1.28,6.21.02.01.04.03.07.04,1.36.93,3.13,1,4.56.17,1.49-.74,2.41-2.28,2.37-3.94,0-1.42.17-5.36.17-5.36Z"/><path id="Path_10592" class="cls-5" d="M47.6,56.81c-.04,1.66.88,3.2,2.37,3.94,1.43.83,3.2.76,4.56-.17,2.09-1.33,2.71-4.09,1.38-6.18-.01-.02-.03-.04-.04-.07-.72-1.12-1.9-1.85-3.22-2.01-1.6-.23-5.22-.87-5.22-.87,0,0,.16,3.94.17,5.36Z"/><path id="Path_10593" class="cls-5" d="M36.27,42.81c-1.66.07-3.13,1.1-3.77,2.63-.73,1.48-.54,3.25.48,4.54,1.47,1.99,4.27,2.42,6.26.96.02-.02.04-.03.06-.05,1.06-.8,1.72-2.03,1.78-3.36.12-1.61.51-5.26.51-5.26,0,0-3.92.43-5.33.54Z"/><path id="Path_10594" class="cls-5" d="M51.14,42.28s.39,3.65.52,5.26c.06,1.33.71,2.56,1.78,3.36,1.97,1.5,4.78,1.12,6.28-.85.02-.02.03-.04.05-.06,1.02-1.29,1.21-3.06.48-4.54-.64-1.54-2.11-2.56-3.77-2.63-1.42-.11-5.33-.54-5.33-.54Z"/></g><g id="Group_257"><path id="Path_10595" class="cls-5" d="M116.89,41.43c1.13-1.22,1.44-2.99.81-4.53-.53-1.56-1.91-2.67-3.55-2.87-2.45-.37-4.73,1.31-5.11,3.75,0,.03,0,.05-.01.08-.19,1.32.22,2.65,1.11,3.63,1.05,1.23,3.36,4.08,3.36,4.08,0,0,2.46-3.07,3.39-4.15Z"/><g id="Group_256"><path id="Path_10596" class="cls-5" d="M113.25,51.04s-3.62.64-5.22.87c-1.32.15-2.5.89-3.22,2.01-1.36,2.07-.79,4.85,1.28,6.21.02.01.04.03.07.04,1.36.93,3.13,1,4.56.17,1.49-.74,2.41-2.28,2.37-3.94.01-1.42.17-5.36.17-5.36Z"/><path id="Path_10597" class="cls-5" d="M113.92,56.4c-.04,1.66.88,3.2,2.37,3.94,1.43.83,3.2.76,4.56-.17,2.09-1.32,2.71-4.09,1.39-6.18-.01-.02-.03-.04-.04-.07-.72-1.12-1.9-1.85-3.22-2.01-1.6-.23-5.22-.87-5.22-.87,0,0,.16,3.94.17,5.36Z"/></g><path id="Path_10598" class="cls-5" d="M116.74,50.56s3.62-.64,5.22-.87c1.32-.15,2.5-.89,3.22-2.01,1.36-2.07.79-4.85-1.28-6.21-.02-.01-.04-.03-.07-.04-1.36-.93-3.13-1-4.56-.17-1.49.74-2.41,2.28-2.37,3.94,0,1.42-.17,5.36-.17,5.36Z"/><path id="Path_10599" class="cls-5" d="M109.86,45.2c.04-1.66-.88-3.2-2.37-3.94-1.43-.83-3.2-.76-4.56.17-2.09,1.33-2.71,4.09-1.38,6.18.01.02.03.04.04.07.72,1.12,1.9,1.85,3.22,2.01,1.6.23,5.22.87,5.22.87,0,0-.16-3.94-.17-5.36Z"/></g><g id="Group_258"><path id="Path_10600" class="cls-5" d="M16.3,41.71c1.13-1.22,1.44-2.99.81-4.53-.53-1.56-1.91-2.67-3.55-2.87-2.45-.37-4.73,1.3-5.11,3.75,0,.03,0,.05-.01.08-.19,1.32.22,2.65,1.11,3.63,1.05,1.23,3.36,4.09,3.36,4.09,0,0,2.47-3.08,3.39-4.15Z"/><path id="Path_10601" class="cls-5" d="M7.64,51.04s-3.62.64-5.22.87c-1.32.15-2.5.89-3.22,2.01-1.36,2.07-.79,4.85,1.28,6.21.02.01.04.03.07.04,1.36.93,3.13,1,4.56.17,1.49-.74,2.41-2.28,2.37-3.94.01-1.42.17-5.36.17-5.36Z"/><path id="Path_10602" class="cls-5" d="M18.26,56.4c-.04,1.66.88,3.2,2.37,3.94,1.43.83,3.2.76,4.56-.17,2.09-1.33,2.71-4.09,1.38-6.18-.01-.02-.03-.04-.04-.07-.72-1.12-1.9-1.85-3.22-2.01-1.6-.23-5.22-.87-5.22-.87,0,0,.16,3.94.17,5.36Z"/><path id="Path_10603" class="cls-5" d="M18.09,42.4s3.62-.64,5.22-.87c1.32-.15,2.5-.89,3.22-2.01,1.36-2.07.79-4.85-1.28-6.21-.02-.01-.04-.03-.07-.04-1.36-.93-3.13-1-4.56-.17-1.49.74-2.41,2.28-2.37,3.94,0,1.42-.17,5.36-.17,5.36Z"/><path id="Path_10604" class="cls-5" d="M7.47,37.04c.04-1.66-.88-3.2-2.37-3.94-1.43-.83-3.2-.76-4.56.17-2.09,1.33-2.71,4.09-1.38,6.18.01.02.03.04.04.07.72,1.12,1.9,1.85,3.22,2.01,1.6.23,5.22.87,5.22.87,0,0-.16-3.94-.17-5.36Z"/></g><g id="Group_259"><path id="Path_10605" class="cls-5" d="M180.59,33.04c-1.66.07-3.13,1.1-3.77,2.63-.73,1.48-.54,3.25.48,4.54,1.46,1.99,4.27,2.42,6.26.96.02-.02.04-.03.06-.05,1.06-.8,1.72-2.03,1.78-3.35.12-1.61.51-5.26.51-5.26,0,0-3.92.43-5.33.54Z"/><path id="Path_10606" class="cls-5" d="M179.09,51.04s-3.62.64-5.22.87c-1.32.15-2.5.89-3.22,2.01-1.36,2.07-.79,4.85,1.28,6.21.02.01.04.03.07.04,1.36.93,3.13,1,4.56.17,1.49-.74,2.41-2.28,2.37-3.94,0-1.42.17-5.36.17-5.36Z"/><path id="Path_10607" class="cls-5" d="M182.25,56.4c-.04,1.66.88,3.2,2.37,3.94,1.43.83,3.2.76,4.56-.17,2.09-1.32,2.71-4.09,1.39-6.18-.01-.02-.03-.04-.04-.07-.72-1.12-1.9-1.85-3.22-2.01-1.6-.23-5.22-.87-5.22-.87,0,0,.16,3.94.17,5.36Z"/><path id="Path_10608" class="cls-5" d="M185.62,46.83s3.62-.64,5.22-.87c1.32-.15,2.5-.89,3.22-2.01,1.36-2.07.79-4.84-1.27-6.21-.02-.01-.04-.03-.07-.04-1.36-.93-3.13-1-4.56-.17-1.49.74-2.41,2.28-2.37,3.94,0,1.42-.17,5.36-.17,5.36Z"/><path id="Path_10609" class="cls-5" d="M175,41.47c.04-1.66-.88-3.2-2.37-3.94-1.43-.83-3.2-.76-4.56.17-2.09,1.32-2.71,4.09-1.39,6.18.01.02.03.04.04.07.72,1.12,1.9,1.85,3.22,2.01,1.6.23,5.22.87,5.22.87,0,0-.16-3.94-.17-5.36Z"/></g><g id="Group_260"><path id="Path_10610" class="cls-5" d="M143.59,36.68c-1.13,1.22-1.44,2.99-.81,4.53.53,1.56,1.91,2.67,3.55,2.87,2.45.37,4.73-1.31,5.11-3.75,0-.03,0-.05.01-.08.19-1.32-.22-2.65-1.11-3.63-1.05-1.23-3.36-4.08-3.36-4.08,0,0-2.47,3.07-3.39,4.15Z"/><path id="Path_10611" class="cls-5" d="M143.55,51.04s-3.62.64-5.22.87c-1.32.15-2.5.89-3.22,2.01-1.36,2.07-.79,4.85,1.28,6.21.02.01.04.03.07.04,1.36.93,3.13,1,4.56.17,1.49-.74,2.41-2.28,2.37-3.94,0-1.42.17-5.36.17-5.36Z"/><path id="Path_10612" class="cls-5" d="M150.44,56.4c-.04,1.66.88,3.2,2.37,3.94,1.43.83,3.2.76,4.56-.17,2.09-1.32,2.71-4.09,1.39-6.18-.01-.02-.03-.05-.04-.07-.72-1.12-1.9-1.85-3.22-2.01-1.6-.23-5.22-.87-5.22-.87,0,0,.16,3.94.17,5.36Z"/><path id="Path_10613" class="cls-5" d="M150.22,50.56s3.62-.64,5.22-.87c1.32-.15,2.5-.89,3.22-2.01,1.36-2.07.79-4.85-1.28-6.21-.02-.01-.04-.03-.07-.04-1.36-.93-3.13-1-4.56-.17-1.49.74-2.41,2.28-2.37,3.94,0,1.42-.17,5.36-.17,5.36Z"/><path id="Path_10614" class="cls-5" d="M143.34,45.2c.04-1.66-.88-3.2-2.37-3.94-1.43-.83-3.2-.76-4.56.17-2.09,1.32-2.71,4.09-1.39,6.18.01.02.03.04.04.07.72,1.12,1.9,1.85,3.22,2.01,1.6.23,5.22.87,5.22.87,0,0-.16-3.94-.17-5.36Z"/></g></g><g id="Group_278"><g id="Group_263"><path id="Path_10615" class="cls-5" d="M113.38,67.68s-2.31,2.86-3.36,4.08c-.9.98-1.3,2.32-1.11,3.63.33,2.45,2.59,4.17,5.04,3.84.03,0,.05,0,.08-.01,1.64-.19,3.02-1.31,3.55-2.87.63-1.54.32-3.3-.81-4.53-.92-1.08-3.39-4.15-3.39-4.15Z"/><g id="Group_262"><path id="Path_10616" class="cls-5" d="M113.8,92.31c-.04,1.66.88,3.2,2.37,3.94,1.43.83,3.2.76,4.56-.17,2.09-1.32,2.71-4.09,1.39-6.18-.01-.02-.03-.04-.04-.07-.72-1.12-1.9-1.85-3.22-2.01-1.6-.23-5.22-.87-5.22-.87,0,0,.15,3.94.17,5.36Z"/><path id="Path_10617" class="cls-5" d="M113.13,86.95s-3.62.64-5.22.87c-1.32.15-2.5.89-3.22,2.01-1.36,2.07-.79,4.85,1.28,6.21.02.01.04.03.07.04,1.36.93,3.13,1,4.56.17,1.49-.74,2.41-2.28,2.37-3.94,0-1.42.17-5.36.17-5.36Z"/></g><path id="Path_10618" class="cls-5" d="M113.51,82.7s-2.86-2.31-4.08-3.36c-.98-.89-2.32-1.3-3.63-1.11-2.45.33-4.17,2.59-3.84,5.04,0,.03,0,.05.01.08.19,1.64,1.31,3.02,2.87,3.55,1.54.63,3.3.32,4.53-.81,1.08-.92,4.15-3.39,4.15-3.39Z"/><path id="Path_10619" class="cls-5" d="M113.26,82.7s2.86,2.31,4.08,3.36c.98.89,2.32,1.3,3.63,1.11,2.45-.33,4.17-2.59,3.84-5.04,0-.03,0-.05-.01-.08-.19-1.64-1.31-3.02-2.87-3.55-1.54-.63-3.3-.32-4.53.81-1.08.92-4.15,3.39-4.15,3.39Z"/></g><g id="Group_264"><path id="Path_10620" class="cls-5" d="M151.84,70.21s-3.65.39-5.26.51c-1.33.06-2.56.72-3.35,1.78-1.5,1.97-1.12,4.78.85,6.28.02.02.04.03.06.05,1.29,1.02,3.06,1.21,4.54.48,1.54-.64,2.56-2.11,2.63-3.77.11-1.41.54-5.33.54-5.33Z"/><path id="Path_10621" class="cls-5" d="M147.88,92.31c-.04,1.66.88,3.2,2.37,3.94,1.43.83,3.2.76,4.56-.17,2.09-1.33,2.71-4.09,1.38-6.18-.01-.02-.03-.04-.04-.07-.72-1.12-1.9-1.85-3.22-2.01-1.6-.23-5.22-.87-5.22-.87,0,0,.16,3.94.17,5.36Z"/><path id="Path_10622" class="cls-5" d="M145.83,86.95s-3.62.64-5.22.87c-1.32.15-2.5.89-3.22,2.01-1.36,2.07-.79,4.85,1.28,6.21.02.01.04.03.07.04,1.36.93,3.13,1,4.56.17,1.49-.74,2.41-2.28,2.37-3.94,0-1.42.17-5.36.17-5.36Z"/><path id="Path_10623" class="cls-5" d="M151.66,77.77s.39,3.65.51,5.26c.06,1.33.72,2.56,1.78,3.35,1.97,1.5,4.78,1.12,6.28-.85.02-.02.03-.04.05-.06,1.02-1.29,1.21-3.06.48-4.54-.64-1.54-2.11-2.56-3.77-2.63-1.42-.11-5.33-.54-5.33-.54Z"/><path id="Path_10624" class="cls-5" d="M136.79,78.3c-1.66.07-3.13,1.1-3.77,2.63-.73,1.48-.54,3.25.48,4.54,1.46,1.99,4.27,2.42,6.26.96.02-.02.04-.03.06-.05,1.06-.8,1.72-2.03,1.78-3.35.12-1.61.51-5.26.51-5.26,0,0-3.92.43-5.33.54Z"/></g><g id="Group_266"><path id="Path_10625" class="cls-5" d="M79.76,81.08s2.31-2.86,3.36-4.08c.89-.98,1.3-2.32,1.11-3.63-.33-2.45-2.59-4.17-5.04-3.84-.03,0-.05,0-.08.01-1.64.19-3.02,1.31-3.55,2.87-.64,1.54-.32,3.3.81,4.53.92,1.08,3.39,4.15,3.39,4.15Z"/><g id="Group_265"><path id="Path_10626" class="cls-5" d="M80.18,91.89c-.04,1.66.88,3.2,2.37,3.94,1.43.83,3.2.76,4.56-.17,2.09-1.32,2.71-4.09,1.39-6.18-.01-.02-.03-.04-.04-.07-.72-1.12-1.9-1.85-3.22-2.01-1.6-.23-5.22-.87-5.22-.87,0,0,.16,3.94.17,5.36Z"/><path id="Path_10627" class="cls-5" d="M79.51,86.53s-3.62.64-5.22.87c-1.32.15-2.5.89-3.22,2.01-1.36,2.07-.79,4.85,1.28,6.21.02.01.04.03.07.04,1.36.93,3.13,1,4.56.17,1.49-.74,2.41-2.28,2.37-3.94,0-1.42.17-5.36.17-5.36Z"/></g><path id="Path_10628" class="cls-5" d="M76.35,80.7c.04-1.66-.88-3.2-2.37-3.94-1.43-.83-3.2-.76-4.56.17-2.09,1.33-2.71,4.09-1.38,6.18.01.02.03.04.04.07.72,1.12,1.9,1.85,3.22,2.01,1.6.23,5.22.87,5.22.87,0,0-.16-3.94-.17-5.36Z"/><path id="Path_10629" class="cls-5" d="M83.23,86.06s3.62-.64,5.22-.87c1.32-.15,2.5-.89,3.22-2.01,1.36-2.07.79-4.84-1.27-6.21-.02-.01-.04-.03-.07-.04-1.36-.93-3.13-1-4.56-.17-1.49.74-2.41,2.28-2.37,3.94,0,1.42-.17,5.36-.17,5.36Z"/></g><g id="Group_267"><path id="Path_10630" class="cls-5" d="M180.35,81.35s2.31-2.86,3.36-4.08c.89-.98,1.3-2.32,1.11-3.63-.33-2.45-2.59-4.17-5.04-3.84-.03,0-.05,0-.08.01-1.64.19-3.02,1.31-3.55,2.87-.63,1.54-.32,3.3.81,4.53.92,1.08,3.39,4.15,3.39,4.15Z"/><path id="Path_10631" class="cls-5" d="M185.79,91.89c-.04,1.66.88,3.2,2.37,3.94,1.43.83,3.2.76,4.56-.17,2.09-1.33,2.71-4.09,1.38-6.18-.01-.02-.03-.04-.04-.07-.72-1.12-1.9-1.85-3.22-2.01-1.6-.23-5.22-.87-5.22-.87,0,0,.16,3.94.17,5.36Z"/><path id="Path_10632" class="cls-5" d="M175.17,86.53s-3.62.64-5.22.87c-1.32.15-2.5.89-3.22,2.01-1.36,2.07-.79,4.85,1.28,6.21.02.01.04.03.07.04,1.36.93,3.13,1,4.56.17,1.49-.74,2.41-2.28,2.37-3.94,0-1.42.17-5.36.17-5.36Z"/><path id="Path_10633" class="cls-5" d="M175,72.54c.04-1.66-.88-3.2-2.37-3.94-1.43-.83-3.2-.76-4.56.17-2.09,1.32-2.71,4.09-1.39,6.18.01.02.03.04.04.07.72,1.12,1.9,1.85,3.22,2.01,1.6.23,5.22.87,5.22.87,0,0-.16-3.94-.17-5.36Z"/><path id="Path_10634" class="cls-5" d="M185.62,77.9s3.62-.64,5.22-.87c1.32-.15,2.5-.89,3.22-2.01,1.36-2.07.79-4.85-1.28-6.21-.02-.01-.04-.03-.07-.04-1.36-.93-3.13-1-4.56-.17-1.49.74-2.41,2.28-2.37,3.94,0,1.42-.17,5.36-.17,5.36Z"/></g><g id="Group_268"><path id="Path_10635" class="cls-5" d="M7.33,68s.39,3.65.51,5.26c.06,1.33.72,2.56,1.78,3.35,1.97,1.5,4.78,1.12,6.28-.85.02-.02.03-.04.05-.06,1.02-1.29,1.21-3.06.48-4.54-.64-1.54-2.11-2.56-3.77-2.63-1.41-.11-5.33-.54-5.33-.54Z"/><path id="Path_10636" class="cls-5" d="M14.34,91.89c-.04,1.66.88,3.2,2.37,3.94,1.43.83,3.2.76,4.56-.17,2.09-1.33,2.71-4.09,1.38-6.18-.01-.02-.03-.04-.04-.07-.72-1.12-1.9-1.85-3.22-2.01-1.6-.23-5.22-.87-5.22-.87,0,0,.16,3.94.17,5.36Z"/><path id="Path_10637" class="cls-5" d="M11.19,86.53s-3.62.64-5.22.87c-1.32.15-2.5.89-3.22,2.01-1.36,2.07-.79,4.85,1.28,6.21.02.01.04.03.07.04,1.36.93,3.13,1,4.56.17,1.49-.74,2.41-2.28,2.37-3.94,0-1.42.17-5.36.17-5.36Z"/><path id="Path_10638" class="cls-5" d="M7.47,76.96c.04-1.66-.88-3.2-2.37-3.94-1.43-.83-3.2-.76-4.56.17-2.09,1.33-2.71,4.09-1.38,6.18.01.02.03.04.04.07.72,1.12,1.9,1.85,3.22,2.01,1.6.23,5.22.87,5.22.87,0,0-.16-3.94-.17-5.36Z"/><path id="Path_10639" class="cls-5" d="M18.09,82.32s3.62-.64,5.22-.87c1.32-.15,2.5-.89,3.22-2.01,1.36-2.07.79-4.85-1.28-6.21-.02-.01-.04-.03-.07-.04-1.36-.93-3.13-1-4.56-.17-1.49.74-2.41,2.28-2.37,3.94,0,1.42-.17,5.36-.17,5.36Z"/></g><g id="Group_269"><path id="Path_10640" class="cls-5" d="M46.28,68.02s-2.31,2.86-3.36,4.08c-.89.98-1.3,2.32-1.11,3.63.33,2.45,2.59,4.17,5.04,3.84.03,0,.05,0,.08-.01,1.64-.19,3.02-1.31,3.55-2.87.63-1.54.32-3.3-.81-4.53-.92-1.07-3.39-4.15-3.39-4.15Z"/><path id="Path_10641" class="cls-5" d="M49.88,91.89c-.04,1.66.88,3.2,2.37,3.94,1.43.83,3.2.76,4.56-.17,2.09-1.33,2.71-4.09,1.39-6.18-.01-.02-.03-.04-.04-.07-.72-1.12-1.9-1.85-3.22-2.01-1.6-.23-5.22-.87-5.22-.87,0,0,.16,3.94.17,5.36Z"/><path id="Path_10642" class="cls-5" d="M42.99,86.53s-3.62.64-5.22.87c-1.32.15-2.5.89-3.22,2.01-1.36,2.07-.79,4.85,1.28,6.21.02.01.04.03.07.04,1.36.93,3.13,1,4.56.17,1.49-.74,2.41-2.28,2.37-3.94,0-1.42.17-5.36.17-5.36Z"/><path id="Path_10643" class="cls-5" d="M42.87,80.7c.04-1.66-.88-3.2-2.37-3.94-1.43-.83-3.2-.76-4.56.17-2.09,1.32-2.71,4.09-1.39,6.18.01.02.03.04.04.07.72,1.12,1.9,1.85,3.22,2.01,1.6.23,5.22.87,5.22.87,0,0-.16-3.94-.17-5.36Z"/><path id="Path_10644" class="cls-5" d="M49.75,86.06s3.62-.64,5.22-.87c1.32-.15,2.5-.89,3.22-2.01,1.36-2.07.79-4.85-1.28-6.21-.02-.01-.04-.03-.07-.04-1.36-.93-3.13-1-4.56-.17-1.49.74-2.41,2.28-2.37,3.94,0,1.42-.17,5.36-.17,5.36Z"/></g><g id="Group_271"><path id="Path_10645" class="cls-5" d="M318.07,67.68s-2.31,2.86-3.36,4.08c-.89.98-1.3,2.32-1.11,3.63.33,2.45,2.59,4.17,5.04,3.84.03,0,.05,0,.08-.01,1.64-.19,3.02-1.31,3.55-2.87.63-1.54.32-3.3-.81-4.53-.92-1.08-3.39-4.15-3.39-4.15Z"/><g id="Group_270"><path id="Path_10646" class="cls-5" d="M318.49,92.31c-.04,1.66.88,3.2,2.37,3.94,1.43.83,3.2.76,4.56-.17,2.09-1.32,2.71-4.09,1.39-6.18-.01-.02-.03-.04-.04-.07-.72-1.12-1.9-1.85-3.22-2.01-1.6-.23-5.22-.87-5.22-.87,0,0,.16,3.94.17,5.36Z"/><path id="Path_10647" class="cls-5" d="M317.82,86.95s-3.62.64-5.22.87c-1.32.15-2.5.89-3.22,2.01-1.36,2.07-.79,4.85,1.28,6.21.02.01.04.03.07.04,1.36.93,3.13,1,4.56.17,1.49-.74,2.41-2.28,2.37-3.94,0-1.42.17-5.36.17-5.36Z"/></g><path id="Path_10648" class="cls-5" d="M318.19,82.7s-2.86-2.31-4.08-3.36c-.98-.89-2.32-1.3-3.63-1.11-2.45.33-4.17,2.59-3.84,5.04,0,.03,0,.05.01.08.19,1.64,1.31,3.02,2.87,3.55,1.54.64,3.3.32,4.53-.81,1.08-.92,4.15-3.39,4.15-3.39Z"/><path id="Path_10649" class="cls-5" d="M317.94,82.7s2.86,2.31,4.08,3.36c.98.89,2.32,1.3,3.63,1.11,2.45-.33,4.17-2.59,3.84-5.04,0-.03,0-.05-.01-.08-.19-1.64-1.31-3.02-2.87-3.55-1.54-.64-3.3-.32-4.53.81-1.08.92-4.15,3.39-4.15,3.39Z"/></g><g id="Group_272"><path id="Path_10650" class="cls-5" d="M356.52,70.21s-3.65.39-5.26.51c-1.33.06-2.56.72-3.36,1.78-1.5,1.97-1.12,4.78.85,6.28.02.02.04.03.06.05,1.29,1.02,3.06,1.21,4.54.48,1.54-.64,2.56-2.11,2.63-3.77.11-1.41.54-5.33.54-5.33Z"/><path id="Path_10651" class="cls-5" d="M352.57,92.31c-.04,1.66.88,3.2,2.37,3.94,1.43.83,3.2.76,4.56-.17,2.09-1.33,2.71-4.09,1.38-6.18-.01-.02-.03-.04-.04-.07-.72-1.12-1.9-1.85-3.22-2.01-1.6-.23-5.22-.87-5.22-.87,0,0,.16,3.94.17,5.36Z"/><path id="Path_10652" class="cls-5" d="M350.51,86.95s-3.62.64-5.22.87c-1.32.15-2.5.89-3.22,2.01-1.36,2.07-.79,4.85,1.28,6.21.02.01.04.03.07.04,1.36.93,3.13,1,4.56.17,1.49-.74,2.41-2.28,2.37-3.94,0-1.42.17-5.36.17-5.36Z"/><path id="Path_10653" class="cls-5" d="M356.34,77.77s.39,3.65.52,5.26c.06,1.33.72,2.56,1.78,3.35,1.97,1.5,4.78,1.12,6.28-.85.02-.02.03-.04.05-.06,1.02-1.29,1.21-3.06.48-4.54-.64-1.54-2.11-2.56-3.77-2.63-1.41-.11-5.33-.54-5.33-.54Z"/><path id="Path_10654" class="cls-5" d="M341.47,78.3c-1.66.07-3.13,1.1-3.77,2.63-.73,1.48-.54,3.25.48,4.54,1.46,1.99,4.27,2.42,6.26.96.02-.02.04-.03.06-.05,1.06-.8,1.72-2.03,1.78-3.35.12-1.61.51-5.26.51-5.26,0,0-3.92.43-5.33.54Z"/></g><g id="Group_274"><path id="Path_10655" class="cls-5" d="M284.44,81.08s2.31-2.86,3.36-4.08c.89-.98,1.3-2.32,1.11-3.63-.33-2.45-2.59-4.17-5.04-3.84-.03,0-.05,0-.08.01-1.64.19-3.02,1.31-3.55,2.87-.63,1.54-.32,3.3.81,4.53.92,1.08,3.39,4.15,3.39,4.15Z"/><g id="Group_273"><path id="Path_10656" class="cls-5" d="M284.86,91.89c-.04,1.66.88,3.2,2.37,3.94,1.43.83,3.2.76,4.56-.17,2.09-1.33,2.71-4.09,1.38-6.18-.01-.02-.03-.04-.04-.07-.72-1.12-1.9-1.85-3.22-2.01-1.6-.23-5.22-.87-5.22-.87,0,0,.16,3.94.17,5.36Z"/><path id="Path_10657" class="cls-5" d="M284.19,86.53s-3.62.64-5.22.87c-1.32.15-2.5.89-3.22,2.01-1.36,2.07-.79,4.84,1.27,6.21.02.01.05.03.07.04,1.36.93,3.13,1,4.56.17,1.49-.74,2.41-2.28,2.37-3.94,0-1.42.17-5.36.17-5.36Z"/></g><path id="Path_10658" class="cls-5" d="M281.03,80.7c.04-1.66-.88-3.2-2.37-3.94-1.43-.83-3.2-.76-4.56.17-2.09,1.33-2.71,4.09-1.38,6.18.01.02.03.04.04.06.72,1.12,1.9,1.85,3.22,2.01,1.6.23,5.22.87,5.22.87,0,0-.16-3.94-.17-5.36Z"/><path id="Path_10659" class="cls-5" d="M287.92,86.06s3.62-.64,5.22-.87c1.32-.15,2.5-.89,3.22-2.01,1.36-2.07.79-4.85-1.28-6.21-.02-.01-.04-.03-.07-.04-1.36-.93-3.13-1-4.56-.17-1.49.74-2.41,2.28-2.37,3.94,0,1.42-.17,5.36-.17,5.36Z"/></g><g id="Group_275"><path id="Path_10660" class="cls-5" d="M385.03,81.35s2.31-2.86,3.36-4.08c.89-.98,1.3-2.32,1.11-3.63-.33-2.45-2.59-4.17-5.04-3.84-.03,0-.05,0-.08.01-1.64.19-3.02,1.31-3.55,2.87-.64,1.54-.32,3.3.81,4.53.92,1.08,3.39,4.15,3.39,4.15Z"/><path id="Path_10661" class="cls-5" d="M390.47,91.89c-.04,1.66.88,3.2,2.37,3.94,1.43.83,3.2.76,4.56-.17,2.09-1.33,2.71-4.09,1.38-6.18-.01-.02-.03-.04-.04-.07-.72-1.12-1.9-1.85-3.22-2.01-1.6-.23-5.22-.87-5.22-.87,0,0,.16,3.94.17,5.36Z"/><path id="Path_10662" class="cls-5" d="M379.85,86.53s-3.62.64-5.22.87c-1.32.15-2.5.89-3.22,2.01-1.36,2.07-.79,4.84,1.27,6.21.02.01.05.03.07.04,1.36.93,3.13,1,4.56.17,1.49-.74,2.41-2.28,2.37-3.94,0-1.42.17-5.36.17-5.36Z"/><path id="Path_10663" class="cls-5" d="M379.68,72.54c.04-1.66-.88-3.2-2.37-3.94-1.43-.83-3.2-.76-4.56.17-2.09,1.32-2.71,4.09-1.39,6.18.01.02.03.04.04.07.72,1.12,1.9,1.85,3.22,2.01,1.6.23,5.22.87,5.22.87,0,0-.16-3.94-.17-5.36Z"/><path id="Path_10664" class="cls-5" d="M390.3,77.9s3.62-.64,5.22-.87c1.32-.15,2.5-.89,3.22-2.01,1.36-2.07.79-4.85-1.28-6.21-.02-.01-.04-.03-.07-.04-1.36-.93-3.13-1-4.56-.17-1.49.74-2.41,2.28-2.37,3.94,0,1.42-.17,5.36-.17,5.36Z"/></g><g id="Group_276"><path id="Path_10665" class="cls-5" d="M212.02,68s.39,3.65.51,5.26c.06,1.33.72,2.56,1.78,3.35,1.97,1.5,4.78,1.12,6.28-.85.02-.02.03-.04.05-.06,1.02-1.29,1.21-3.06.48-4.54-.64-1.54-2.11-2.56-3.77-2.63-1.42-.11-5.33-.54-5.33-.54Z"/><path id="Path_10666" class="cls-5" d="M219.03,91.89c-.04,1.66.88,3.2,2.37,3.94,1.43.83,3.2.76,4.56-.17,2.09-1.33,2.71-4.09,1.38-6.18-.01-.02-.03-.04-.04-.07-.72-1.12-1.9-1.85-3.22-2.01-1.6-.23-5.22-.87-5.22-.87,0,0,.16,3.94.17,5.36Z"/><path id="Path_10667" class="cls-5" d="M215.86,86.53s-3.62.64-5.22.87c-1.32.15-2.5.89-3.22,2.01-1.36,2.07-.79,4.85,1.28,6.21.02.01.04.03.07.04,1.36.93,3.13,1,4.56.17,1.49-.74,2.41-2.28,2.37-3.94.01-1.42.17-5.36.17-5.36Z"/><path id="Path_10668" class="cls-5" d="M212.15,76.96c.04-1.66-.88-3.2-2.37-3.94-1.43-.83-3.2-.76-4.56.17-2.09,1.33-2.71,4.09-1.38,6.18.01.02.03.04.04.07.72,1.12,1.9,1.85,3.22,2.01,1.6.23,5.22.87,5.22.87,0,0-.16-3.94-.17-5.36Z"/><path id="Path_10669" class="cls-5" d="M222.77,82.32s3.62-.64,5.22-.87c1.32-.15,2.5-.89,3.22-2.01,1.36-2.07.79-4.85-1.28-6.21-.02-.01-.04-.03-.07-.04-1.36-.93-3.13-1-4.56-.17-1.49.74-2.41,2.28-2.37,3.94,0,1.42-.17,5.36-.17,5.36Z"/></g><g id="Group_277"><path id="Path_10670" class="cls-5" d="M250.96,68.02s-2.31,2.86-3.36,4.08c-.9.98-1.3,2.32-1.11,3.63.33,2.45,2.59,4.17,5.04,3.84.03,0,.05,0,.08-.01,1.64-.19,3.02-1.31,3.55-2.87.64-1.54.32-3.3-.81-4.53-.92-1.07-3.39-4.15-3.39-4.15Z"/><path id="Path_10671" class="cls-5" d="M254.56,91.89c-.04,1.66.88,3.2,2.37,3.94,1.43.83,3.2.76,4.56-.17,2.09-1.32,2.71-4.09,1.39-6.18-.01-.02-.03-.04-.04-.07-.72-1.12-1.9-1.85-3.22-2.01-1.6-.23-5.22-.87-5.22-.87,0,0,.16,3.94.17,5.36Z"/><path id="Path_10672" class="cls-5" d="M247.67,86.53s-3.62.64-5.22.87c-1.32.15-2.5.89-3.22,2.01-1.36,2.07-.79,4.85,1.28,6.21.02.01.04.03.07.04,1.36.93,3.13,1,4.56.17,1.49-.74,2.41-2.28,2.37-3.94.01-1.42.17-5.36.17-5.36Z"/><path id="Path_10673" class="cls-5" d="M247.55,80.7c.04-1.66-.88-3.2-2.37-3.94-1.43-.83-3.2-.76-4.56.17-2.09,1.32-2.71,4.09-1.39,6.18.01.02.03.04.04.07.72,1.12,1.9,1.85,3.22,2.01,1.6.23,5.22.87,5.22.87,0,0-.16-3.94-.17-5.36Z"/><path id="Path_10674" class="cls-5" d="M254.43,86.06s3.62-.64,5.22-.87c1.32-.15,2.5-.89,3.22-2.01,1.36-2.07.79-4.84-1.28-6.21-.02-.01-.04-.03-.07-.04-1.36-.93-3.13-1-4.56-.17-1.49.74-2.41,2.28-2.37,3.94,0,1.42-.17,5.36-.17,5.36Z"/></g></g><g id="Group_295"><g id="Group_280"><path id="Path_10675" class="cls-5" d="M281.17,107.32c-1.13,1.22-1.44,2.99-.81,4.53.53,1.56,1.91,2.67,3.55,2.87,2.45.37,4.73-1.3,5.11-3.75,0-.03,0-.05.01-.08.19-1.32-.22-2.65-1.11-3.63-1.05-1.23-3.36-4.08-3.36-4.08,0,0-2.47,3.07-3.39,4.15Z"/><g id="Group_279"><path id="Path_10676" class="cls-5" d="M284.31,122.44s-3.62.64-5.22.87c-1.32.15-2.5.89-3.22,2.01-1.36,2.07-.79,4.85,1.28,6.21.02.01.04.03.07.04,1.36.93,3.13,1,4.56.17,1.49-.74,2.41-2.28,2.37-3.94,0-1.42.17-5.36.17-5.36Z"/><path id="Path_10677" class="cls-5" d="M284.98,127.8c-.04,1.66.88,3.2,2.37,3.94,1.43.83,3.2.76,4.56-.17,2.09-1.33,2.71-4.09,1.38-6.18-.01-.02-.03-.04-.04-.07-.72-1.12-1.9-1.85-3.22-2.01-1.6-.23-5.22-.87-5.22-.87,0,0,.16,3.94.17,5.36Z"/></g><path id="Path_10678" class="cls-5" d="M288.58,121.59c1.22,1.13,2.99,1.44,4.53.81,1.56-.53,2.67-1.91,2.87-3.55.37-2.45-1.3-4.73-3.75-5.11-.03,0-.05,0-.08-.01-1.32-.19-2.65.22-3.63,1.11-1.23,1.05-4.08,3.36-4.08,3.36,0,0,3.07,2.47,4.15,3.39Z"/><path id="Path_10679" class="cls-5" d="M280.54,114.8c-1.22-1.13-2.99-1.44-4.53-.81-1.56.53-2.67,1.91-2.87,3.55-.37,2.45,1.3,4.73,3.75,5.11.03,0,.05,0,.08.01,1.32.19,2.65-.22,3.63-1.11,1.22-1.05,4.08-3.36,4.08-3.36,0,0-3.07-2.47-4.15-3.39Z"/></g><g id="Group_281"><path id="Path_10680" class="cls-5" d="M246.64,111.04c.07,1.66,1.1,3.13,2.63,3.77,1.48.73,3.24.54,4.54-.48,1.99-1.46,2.42-4.27.96-6.26-.02-.02-.03-.04-.05-.06-.8-1.06-2.03-1.72-3.36-1.78-1.61-.12-5.26-.51-5.26-.51,0,0,.43,3.92.54,5.33Z"/><path id="Path_10681" class="cls-5" d="M250.23,122.44s-3.62.64-5.22.87c-1.32.15-2.5.89-3.22,2.01-1.36,2.07-.79,4.85,1.28,6.21.02.01.04.03.07.04,1.36.93,3.13,1,4.56.17,1.49-.74,2.41-2.28,2.37-3.94,0-1.42.17-5.36.17-5.36Z"/><path id="Path_10682" class="cls-5" d="M252.28,127.8c-.04,1.66.88,3.2,2.37,3.94,1.43.83,3.2.76,4.56-.17,2.09-1.33,2.71-4.09,1.38-6.18-.01-.02-.03-.04-.04-.07-.72-1.12-1.9-1.85-3.22-2.01-1.6-.23-5.22-.87-5.22-.87,0,0,.16,3.94.17,5.36Z"/><path id="Path_10683" class="cls-5" d="M240.95,113.8c-1.66.07-3.13,1.1-3.77,2.63-.73,1.48-.54,3.25.48,4.54,1.47,1.99,4.27,2.42,6.26.96.02-.02.04-.03.06-.05,1.06-.8,1.72-2.03,1.78-3.35.12-1.61.51-5.26.51-5.26,0,0-3.92.43-5.33.54Z"/><path id="Path_10684" class="cls-5" d="M255.82,113.26s.39,3.65.51,5.26c.06,1.33.72,2.56,1.78,3.35,1.97,1.5,4.78,1.12,6.28-.85.02-.02.03-.04.05-.06,1.02-1.29,1.21-3.06.48-4.54-.64-1.54-2.11-2.56-3.77-2.63-1.42-.11-5.33-.54-5.33-.54Z"/></g><g id="Group_283"><path id="Path_10685" class="cls-5" d="M321.57,112.42c1.13-1.22,1.44-2.99.81-4.53-.53-1.56-1.91-2.67-3.55-2.87-2.45-.37-4.73,1.3-5.11,3.75,0,.03,0,.05-.01.08-.19,1.32.22,2.65,1.11,3.63,1.05,1.22,3.36,4.08,3.36,4.08,0,0,2.47-3.07,3.39-4.15Z"/><g id="Group_282"><path id="Path_10686" class="cls-5" d="M317.93,122.03s-3.62.64-5.22.87c-1.32.15-2.5.89-3.22,2.01-1.36,2.07-.79,4.85,1.28,6.21.02.01.04.03.07.04,1.36.93,3.13,1,4.56.17,1.49-.74,2.41-2.28,2.37-3.94,0-1.42.17-5.36.17-5.36Z"/><path id="Path_10687" class="cls-5" d="M318.6,127.39c-.04,1.66.88,3.2,2.37,3.94,1.43.83,3.2.76,4.56-.17,2.09-1.32,2.71-4.09,1.39-6.18-.01-.02-.03-.04-.04-.07-.72-1.12-1.9-1.85-3.22-2.01-1.6-.23-5.22-.87-5.22-.87,0,0,.16,3.94.17,5.36Z"/></g><path id="Path_10688" class="cls-5" d="M321.42,121.55s3.62-.64,5.22-.87c1.32-.15,2.5-.89,3.22-2.01,1.36-2.07.79-4.85-1.28-6.21-.02-.01-.04-.03-.07-.04-1.36-.93-3.13-1-4.56-.17-1.49.74-2.41,2.28-2.37,3.94,0,1.42-.17,5.36-.17,5.36Z"/><path id="Path_10689" class="cls-5" d="M314.54,116.19c.04-1.66-.88-3.2-2.37-3.94-1.43-.83-3.2-.76-4.56.17-2.09,1.32-2.71,4.09-1.39,6.18.01.02.03.04.04.07.72,1.12,1.9,1.85,3.22,2.01,1.6.23,5.22.87,5.22.87,0,0-.16-3.94-.17-5.36Z"/></g><g id="Group_284"><path id="Path_10690" class="cls-5" d="M220.98,112.7c1.13-1.22,1.44-2.99.81-4.53-.53-1.56-1.91-2.67-3.55-2.87-2.45-.37-4.73,1.3-5.11,3.75,0,.03,0,.05-.01.08-.19,1.32.22,2.65,1.11,3.63,1.05,1.22,3.36,4.08,3.36,4.08,0,0,2.47-3.07,3.39-4.15Z"/><path id="Path_10691" class="cls-5" d="M212.32,122.03s-3.62.64-5.22.87c-1.32.15-2.5.89-3.22,2.01-1.36,2.07-.79,4.84,1.27,6.21.02.01.05.03.07.04,1.36.93,3.13,1,4.56.17,1.49-.74,2.41-2.28,2.37-3.94,0-1.42.17-5.36.17-5.36Z"/><path id="Path_10692" class="cls-5" d="M222.94,127.39c-.04,1.66.88,3.2,2.37,3.94,1.43.83,3.2.76,4.56-.17,2.09-1.32,2.71-4.09,1.39-6.18-.01-.02-.03-.05-.04-.07-.72-1.12-1.9-1.85-3.22-2.01-1.6-.23-5.22-.87-5.22-.87,0,0,.16,3.94.17,5.36Z"/><path id="Path_10693" class="cls-5" d="M222.77,113.39s3.62-.64,5.22-.87c1.32-.15,2.5-.89,3.22-2.01,1.36-2.07.79-4.84-1.27-6.21-.02-.01-.05-.03-.07-.04-1.36-.93-3.13-1-4.56-.17-1.49.74-2.41,2.28-2.37,3.94,0,1.42-.17,5.36-.17,5.36Z"/><path id="Path_10694" class="cls-5" d="M212.15,108.03c.04-1.66-.88-3.2-2.37-3.94-1.43-.83-3.2-.76-4.56.17-2.09,1.32-2.71,4.09-1.39,6.18.01.02.03.05.04.07.72,1.12,1.9,1.85,3.22,2.01,1.6.23,5.22.87,5.22.87,0,0-.16-3.94-.17-5.36Z"/></g><g id="Group_285"><path id="Path_10695" class="cls-5" d="M385.28,104.03c-1.66.07-3.13,1.1-3.77,2.63-.73,1.48-.54,3.25.48,4.54,1.46,1.99,4.27,2.42,6.26.96.02-.02.04-.03.06-.05,1.06-.8,1.72-2.03,1.78-3.35.12-1.61.51-5.26.51-5.26,0,0-3.92.43-5.33.54Z"/><path id="Path_10696" class="cls-5" d="M383.77,122.03s-3.62.64-5.22.87c-1.32.15-2.5.89-3.22,2.01-1.36,2.07-.79,4.85,1.28,6.21.02.01.04.03.07.04,1.36.93,3.13,1,4.56.17,1.49-.74,2.41-2.28,2.37-3.94,0-1.42.17-5.36.17-5.36Z"/><path id="Path_10697" class="cls-5" d="M386.93,127.39c-.04,1.66.88,3.2,2.37,3.94,1.43.83,3.2.76,4.56-.17,2.09-1.32,2.71-4.09,1.39-6.18-.01-.02-.03-.05-.04-.07-.72-1.12-1.9-1.85-3.22-2.01-1.6-.23-5.22-.87-5.22-.87,0,0,.16,3.94.17,5.36Z"/><path id="Path_10698" class="cls-5" d="M390.3,117.81s3.62-.64,5.22-.87c1.32-.15,2.5-.89,3.22-2.01,1.36-2.07.79-4.85-1.28-6.21-.02-.01-.04-.03-.07-.04-1.36-.93-3.13-1-4.56-.17-1.49.74-2.41,2.28-2.37,3.94,0,1.42-.17,5.36-.17,5.36Z"/><path id="Path_10699" class="cls-5" d="M379.68,112.46c.04-1.66-.88-3.2-2.37-3.94-1.43-.83-3.2-.76-4.56.17-2.09,1.32-2.71,4.09-1.39,6.18.01.02.03.05.04.07.72,1.12,1.9,1.85,3.22,2.01,1.6.23,5.22.87,5.22.87,0,0-.16-3.94-.17-5.36Z"/></g><g id="Group_286"><path id="Path_10700" class="cls-5" d="M348.27,107.67c-1.13,1.22-1.44,2.99-.81,4.53.53,1.56,1.91,2.67,3.55,2.87,2.45.37,4.73-1.3,5.11-3.75,0-.03,0-.05.01-.08.19-1.32-.22-2.65-1.11-3.63-1.05-1.23-3.36-4.08-3.36-4.08,0,0-2.47,3.07-3.39,4.15Z"/><path id="Path_10701" class="cls-5" d="M348.23,122.03s-3.62.64-5.22.87c-1.32.15-2.5.89-3.22,2.01-1.36,2.07-.79,4.84,1.27,6.21.02.01.05.03.07.04,1.36.93,3.13,1,4.56.17,1.49-.74,2.41-2.28,2.37-3.94,0-1.42.17-5.36.17-5.36Z"/><path id="Path_10702" class="cls-5" d="M355.13,127.39c-.04,1.66.88,3.2,2.37,3.94,1.43.83,3.2.76,4.56-.17,2.09-1.32,2.71-4.09,1.39-6.18-.01-.02-.03-.04-.04-.07-.72-1.12-1.9-1.85-3.22-2.01-1.6-.23-5.22-.87-5.22-.87,0,0,.16,3.94.17,5.36Z"/><path id="Path_10703" class="cls-5" d="M354.9,121.55s3.62-.64,5.22-.87c1.32-.15,2.5-.89,3.22-2.01,1.36-2.07.79-4.85-1.28-6.21-.02-.01-.04-.03-.07-.04-1.36-.93-3.13-1-4.56-.17-1.49.74-2.41,2.28-2.37,3.94,0,1.42-.17,5.36-.17,5.36Z"/><path id="Path_10704" class="cls-5" d="M348.02,116.19c.04-1.66-.88-3.2-2.37-3.94-1.43-.83-3.2-.76-4.56.17-2.09,1.33-2.71,4.09-1.38,6.18.01.02.03.04.04.07.72,1.12,1.9,1.85,3.22,2.01,1.6.23,5.22.87,5.22.87,0,0-.16-3.94-.17-5.36Z"/></g><g id="Group_288"><path id="Path_10705" class="cls-5" d="M76.48,107.32c-1.13,1.22-1.44,2.99-.8,4.53.53,1.56,1.91,2.67,3.55,2.87,2.45.38,4.73-1.3,5.11-3.75,0-.03,0-.05.01-.08.19-1.32-.22-2.65-1.11-3.63-1.05-1.23-3.36-4.08-3.36-4.08,0,0-2.47,3.07-3.39,4.15Z"/><g id="Group_287"><path id="Path_10706" class="cls-5" d="M79.63,122.44s-3.62.64-5.22.87c-1.32.15-2.5.89-3.22,2.01-1.36,2.07-.79,4.85,1.28,6.21.02.01.04.03.07.04,1.36.93,3.13,1,4.56.17,1.49-.74,2.41-2.28,2.37-3.94,0-1.42.17-5.36.17-5.36Z"/><path id="Path_10707" class="cls-5" d="M80.3,127.8c-.04,1.66.88,3.2,2.37,3.94,1.43.83,3.2.76,4.56-.17,2.09-1.33,2.71-4.09,1.38-6.18-.01-.02-.03-.04-.04-.07-.72-1.12-1.9-1.85-3.22-2.01-1.6-.23-5.22-.87-5.22-.87,0,0,.16,3.94.17,5.36Z"/></g><path id="Path_10708" class="cls-5" d="M83.9,121.59c1.22,1.13,2.99,1.44,4.53.81,1.56-.53,2.67-1.91,2.87-3.55.37-2.45-1.3-4.73-3.75-5.11-.03,0-.05,0-.08-.01-1.32-.19-2.65.22-3.63,1.11-1.23,1.05-4.09,3.36-4.09,3.36,0,0,3.08,2.47,4.15,3.39Z"/><path id="Path_10709" class="cls-5" d="M75.86,114.8c-1.22-1.13-2.99-1.44-4.53-.81-1.56.53-2.67,1.91-2.87,3.55-.37,2.45,1.31,4.73,3.75,5.11.03,0,.05,0,.08.01,1.32.19,2.65-.22,3.63-1.11,1.22-1.05,4.08-3.36,4.08-3.36,0,0-3.07-2.47-4.15-3.39Z"/></g><g id="Group_289"><path id="Path_10710" class="cls-5" d="M41.95,111.04c.07,1.66,1.1,3.13,2.63,3.77,1.48.73,3.25.54,4.54-.48,1.99-1.46,2.42-4.27.96-6.26-.02-.02-.03-.04-.05-.06-.8-1.06-2.03-1.72-3.36-1.78-1.61-.12-5.26-.51-5.26-.51,0,0,.43,3.92.54,5.33Z"/><path id="Path_10711" class="cls-5" d="M45.55,122.44s-3.62.64-5.22.87c-1.32.15-2.5.89-3.22,2.01-1.36,2.07-.79,4.85,1.28,6.21.02.01.04.03.07.04,1.36.93,3.13,1,4.56.17,1.49-.74,2.41-2.28,2.37-3.94,0-1.42.17-5.36.17-5.36Z"/><path id="Path_10712" class="cls-5" d="M47.6,127.8c-.04,1.66.88,3.2,2.37,3.94,1.43.83,3.2.76,4.56-.17,2.09-1.33,2.71-4.09,1.38-6.18-.01-.02-.03-.04-.04-.07-.72-1.12-1.9-1.85-3.22-2.01-1.6-.23-5.22-.87-5.22-.87,0,0,.16,3.94.17,5.36Z"/><path id="Path_10713" class="cls-5" d="M36.27,113.8c-1.66.07-3.13,1.1-3.77,2.63-.73,1.48-.54,3.25.48,4.54,1.46,1.99,4.27,2.42,6.26.96.02-.02.04-.03.06-.05,1.06-.8,1.72-2.03,1.78-3.35.12-1.61.51-5.26.51-5.26,0,0-3.92.43-5.33.54Z"/><path id="Path_10714" class="cls-5" d="M51.14,113.26s.39,3.65.52,5.26c.06,1.33.72,2.56,1.78,3.35,1.97,1.5,4.78,1.12,6.28-.85.02-.02.03-.04.05-.06,1.02-1.29,1.21-3.06.48-4.54-.64-1.54-2.11-2.56-3.77-2.63-1.42-.11-5.33-.54-5.33-.54Z"/></g><g id="Group_291"><path id="Path_10715" class="cls-5" d="M116.89,112.42c1.13-1.22,1.44-2.99.81-4.53-.53-1.56-1.91-2.67-3.55-2.87-2.45-.37-4.73,1.3-5.11,3.75,0,.03,0,.05-.01.08-.19,1.32.22,2.65,1.11,3.63,1.05,1.22,3.36,4.08,3.36,4.08,0,0,2.46-3.07,3.39-4.15Z"/><g id="Group_290"><path id="Path_10716" class="cls-5" d="M113.25,122.03s-3.62.64-5.22.87c-1.32.15-2.5.89-3.22,2.01-1.36,2.07-.79,4.85,1.28,6.21.02.01.04.03.07.04,1.36.93,3.13,1,4.56.17,1.49-.74,2.41-2.28,2.37-3.94.01-1.42.17-5.36.17-5.36Z"/><path id="Path_10717" class="cls-5" d="M113.92,127.39c-.04,1.66.88,3.2,2.37,3.94,1.43.83,3.2.76,4.56-.17,2.09-1.32,2.71-4.09,1.39-6.18-.01-.02-.03-.04-.04-.07-.72-1.12-1.9-1.85-3.22-2.01-1.6-.23-5.22-.87-5.22-.87,0,0,.16,3.94.17,5.36Z"/></g><path id="Path_10718" class="cls-5" d="M116.74,121.55s3.62-.64,5.22-.87c1.32-.15,2.5-.89,3.22-2.01,1.36-2.07.79-4.85-1.28-6.21-.02-.01-.04-.03-.07-.04-1.36-.93-3.13-1-4.56-.17-1.49.74-2.41,2.28-2.37,3.94,0,1.42-.17,5.36-.17,5.36Z"/><path id="Path_10719" class="cls-5" d="M109.86,116.19c.04-1.66-.88-3.2-2.37-3.94-1.43-.83-3.2-.76-4.56.17-2.09,1.33-2.71,4.09-1.38,6.18.01.02.03.04.04.07.72,1.12,1.9,1.85,3.22,2.01,1.6.23,5.22.87,5.22.87,0,0-.16-3.94-.17-5.36Z"/></g><g id="Group_292"><path id="Path_10720" class="cls-5" d="M16.3,112.7c1.13-1.22,1.44-2.99.81-4.53-.53-1.56-1.91-2.67-3.55-2.87-2.45-.37-4.73,1.3-5.11,3.75,0,.03,0,.05-.01.08-.19,1.32.22,2.65,1.11,3.63,1.05,1.22,3.36,4.08,3.36,4.08,0,0,2.47-3.07,3.39-4.15Z"/><path id="Path_10721" class="cls-5" d="M7.64,122.03s-3.62.64-5.22.87c-1.32.15-2.5.89-3.22,2.01-1.36,2.07-.79,4.85,1.28,6.21.02.01.04.03.07.04,1.36.93,3.13,1,4.56.17,1.49-.74,2.41-2.28,2.37-3.94.01-1.42.17-5.36.17-5.36Z"/><path id="Path_10722" class="cls-5" d="M18.26,127.39c-.04,1.66.88,3.2,2.37,3.94,1.43.83,3.2.76,4.56-.17,2.09-1.33,2.71-4.09,1.38-6.18-.01-.02-.03-.04-.04-.07-.72-1.12-1.9-1.85-3.22-2.01-1.6-.23-5.22-.87-5.22-.87,0,0,.16,3.94.17,5.36Z"/><path id="Path_10723" class="cls-5" d="M18.09,113.39s3.62-.64,5.22-.87c1.32-.15,2.5-.89,3.22-2.01,1.36-2.07.79-4.85-1.28-6.21-.02-.01-.04-.03-.07-.04-1.36-.93-3.13-1-4.56-.17-1.49.74-2.41,2.28-2.37,3.94,0,1.42-.17,5.36-.17,5.36Z"/><path id="Path_10724" class="cls-5" d="M7.47,108.03c.04-1.66-.88-3.2-2.37-3.94-1.43-.83-3.2-.76-4.56.17-2.09,1.33-2.71,4.09-1.38,6.18.01.02.03.04.04.07.72,1.12,1.9,1.85,3.22,2.01,1.6.23,5.22.87,5.22.87,0,0-.16-3.94-.17-5.36Z"/></g><g id="Group_293"><path id="Path_10725" class="cls-5" d="M180.59,104.03c-1.66.07-3.13,1.1-3.77,2.63-.73,1.48-.54,3.25.48,4.54,1.46,1.99,4.27,2.42,6.26.96.02-.02.04-.03.06-.05,1.06-.8,1.72-2.03,1.78-3.35.12-1.61.51-5.26.51-5.26,0,0-3.92.43-5.33.54Z"/><path id="Path_10726" class="cls-5" d="M179.09,122.03s-3.62.64-5.22.87c-1.32.15-2.5.89-3.22,2.01-1.36,2.07-.79,4.85,1.28,6.21.02.01.04.03.07.04,1.36.93,3.13,1,4.56.17,1.49-.74,2.41-2.28,2.37-3.94,0-1.42.17-5.36.17-5.36Z"/><path id="Path_10727" class="cls-5" d="M182.25,127.39c-.04,1.66.88,3.2,2.37,3.94,1.43.83,3.2.76,4.56-.17,2.09-1.32,2.71-4.09,1.39-6.18-.01-.02-.03-.04-.04-.07-.72-1.12-1.9-1.85-3.22-2.01-1.6-.23-5.22-.87-5.22-.87,0,0,.16,3.94.17,5.36Z"/><path id="Path_10728" class="cls-5" d="M185.62,117.81s3.62-.64,5.22-.87c1.32-.15,2.5-.89,3.22-2.01,1.36-2.07.79-4.85-1.28-6.21-.02-.01-.04-.03-.07-.04-1.36-.93-3.13-1-4.56-.17-1.49.74-2.41,2.28-2.37,3.94,0,1.42-.17,5.36-.17,5.36Z"/><path id="Path_10729" class="cls-5" d="M175,112.46c.04-1.66-.88-3.2-2.37-3.94-1.43-.83-3.2-.76-4.56.17-2.09,1.32-2.71,4.09-1.39,6.18.01.02.03.04.04.07.72,1.12,1.9,1.85,3.22,2.01,1.6.23,5.22.87,5.22.87,0,0-.16-3.94-.17-5.36Z"/></g><g id="Group_294"><path id="Path_10730" class="cls-5" d="M143.59,107.67c-1.13,1.22-1.44,2.99-.81,4.53.53,1.56,1.91,2.67,3.55,2.87,2.45.37,4.73-1.3,5.11-3.75,0-.03,0-.05.01-.08.19-1.32-.22-2.65-1.11-3.63-1.05-1.23-3.36-4.08-3.36-4.08,0,0-2.47,3.07-3.39,4.15Z"/><path id="Path_10731" class="cls-5" d="M143.55,122.03s-3.62.64-5.22.87c-1.32.15-2.5.89-3.22,2.01-1.36,2.07-.79,4.85,1.28,6.21.02.01.04.03.07.04,1.36.93,3.13,1,4.56.17,1.49-.74,2.41-2.28,2.37-3.94,0-1.42.17-5.36.17-5.36Z"/><path id="Path_10732" class="cls-5" d="M150.44,127.39c-.04,1.66.88,3.2,2.37,3.94,1.43.83,3.2.76,4.56-.17,2.09-1.32,2.71-4.09,1.39-6.18-.01-.02-.03-.05-.04-.07-.72-1.12-1.9-1.85-3.22-2.01-1.6-.23-5.22-.87-5.22-.87,0,0,.16,3.94.17,5.36Z"/><path id="Path_10733" class="cls-5" d="M150.22,121.55s3.62-.64,5.22-.87c1.32-.15,2.5-.89,3.22-2.01,1.36-2.07.79-4.85-1.28-6.21-.02-.01-.04-.03-.07-.04-1.36-.93-3.13-1-4.56-.17-1.49.74-2.41,2.28-2.37,3.94,0,1.42-.17,5.36-.17,5.36Z"/><path id="Path_10734" class="cls-5" d="M143.34,116.19c.04-1.66-.88-3.2-2.37-3.94-1.43-.83-3.2-.76-4.56.17-2.09,1.32-2.71,4.09-1.39,6.18.01.02.03.04.04.07.72,1.12,1.9,1.85,3.22,2.01,1.6.23,5.22.87,5.22.87,0,0-.16-3.94-.17-5.36Z"/></g></g><g id="Group_312"><g id="Group_297"><path id="Path_10735" class="cls-5" d="M113.38,138.67s-2.31,2.86-3.36,4.08c-.9.98-1.3,2.32-1.11,3.63.33,2.45,2.59,4.17,5.04,3.84.03,0,.05,0,.08-.01,1.64-.19,3.02-1.31,3.55-2.87.63-1.54.32-3.3-.81-4.53-.92-1.08-3.39-4.15-3.39-4.15Z"/><g id="Group_296"><path id="Path_10736" class="cls-5" d="M113.8,163.29c-.04,1.66.88,3.2,2.37,3.94,1.43.83,3.2.76,4.56-.17,2.09-1.32,2.71-4.09,1.39-6.18-.01-.02-.03-.04-.04-.07-.72-1.12-1.9-1.85-3.22-2.01-1.6-.23-5.22-.87-5.22-.87,0,0,.15,3.94.17,5.36Z"/><path id="Path_10737" class="cls-5" d="M113.13,157.94s-3.62.64-5.22.87c-1.32.15-2.5.89-3.22,2.01-1.36,2.07-.79,4.85,1.28,6.21.02.01.04.03.07.04,1.36.93,3.13,1,4.56.17,1.49-.74,2.41-2.28,2.37-3.94,0-1.42.17-5.36.17-5.36Z"/></g><path id="Path_10738" class="cls-5" d="M113.51,153.69s-2.86-2.31-4.08-3.36c-.98-.89-2.32-1.3-3.63-1.11-2.45.33-4.17,2.59-3.84,5.04,0,.03,0,.05.01.08.19,1.64,1.31,3.02,2.87,3.55,1.54.64,3.3.32,4.53-.81,1.08-.93,4.15-3.39,4.15-3.39Z"/><path id="Path_10739" class="cls-5" d="M113.26,153.69s2.86,2.31,4.08,3.36c.98.89,2.32,1.3,3.63,1.11,2.45-.33,4.17-2.59,3.84-5.04,0-.03,0-.05-.01-.08-.19-1.64-1.31-3.02-2.87-3.55-1.54-.63-3.3-.32-4.53.81-1.08.92-4.15,3.39-4.15,3.39Z"/></g><g id="Group_298"><path id="Path_10740" class="cls-5" d="M151.84,141.2s-3.65.39-5.26.51c-1.33.06-2.56.72-3.35,1.78-1.5,1.97-1.12,4.78.85,6.28.02.02.04.03.06.05,1.29,1.02,3.06,1.21,4.54.48,1.54-.64,2.56-2.11,2.63-3.77.11-1.41.54-5.33.54-5.33Z"/><path id="Path_10741" class="cls-5" d="M147.88,163.29c-.04,1.66.88,3.2,2.37,3.94,1.43.83,3.2.76,4.56-.17,2.09-1.32,2.71-4.09,1.39-6.18-.01-.02-.03-.04-.04-.07-.72-1.12-1.9-1.85-3.22-2.01-1.6-.23-5.22-.87-5.22-.87,0,0,.16,3.94.17,5.36Z"/><path id="Path_10742" class="cls-5" d="M145.83,157.94s-3.62.64-5.22.87c-1.32.15-2.5.89-3.22,2.01-1.36,2.07-.79,4.84,1.27,6.21.02.01.05.03.07.04,1.36.93,3.13,1,4.56.17,1.49-.74,2.41-2.28,2.37-3.94,0-1.42.17-5.36.17-5.36Z"/><path id="Path_10743" class="cls-5" d="M151.66,148.76s.39,3.65.51,5.27c.06,1.33.72,2.56,1.78,3.35,1.97,1.5,4.78,1.12,6.28-.85.02-.02.03-.04.05-.06,1.02-1.29,1.21-3.06.48-4.54-.64-1.54-2.11-2.56-3.77-2.63-1.42-.11-5.33-.54-5.33-.54Z"/><path id="Path_10744" class="cls-5" d="M136.79,149.29c-1.66.07-3.13,1.1-3.77,2.63-.73,1.48-.54,3.24.48,4.54,1.47,1.99,4.27,2.42,6.26.96.02-.02.04-.03.06-.05,1.06-.8,1.72-2.03,1.78-3.35.12-1.61.51-5.27.51-5.27,0,0-3.92.43-5.33.54Z"/></g><g id="Group_300"><path id="Path_10745" class="cls-5" d="M79.76,152.06s2.31-2.86,3.36-4.08c.89-.98,1.3-2.32,1.11-3.63-.33-2.45-2.59-4.17-5.04-3.84-.03,0-.05,0-.08.01-1.64.19-3.02,1.31-3.55,2.87-.64,1.54-.32,3.3.81,4.53.92,1.08,3.39,4.15,3.39,4.15Z"/><g id="Group_299"><path id="Path_10746" class="cls-5" d="M80.18,162.88c-.04,1.66.88,3.2,2.37,3.94,1.43.83,3.2.76,4.56-.17,2.09-1.33,2.71-4.09,1.38-6.18-.01-.02-.03-.04-.04-.07-.72-1.12-1.9-1.85-3.22-2.01-1.6-.23-5.22-.87-5.22-.87,0,0,.16,3.94.17,5.36Z"/><path id="Path_10747" class="cls-5" d="M79.51,157.52s-3.62.64-5.22.87c-1.32.15-2.5.89-3.22,2.01-1.36,2.07-.79,4.85,1.28,6.21.02.01.04.03.07.04,1.36.93,3.13,1,4.56.17,1.49-.74,2.41-2.28,2.37-3.94,0-1.42.17-5.36.17-5.36Z"/></g><path id="Path_10748" class="cls-5" d="M76.35,151.68c.04-1.66-.88-3.2-2.37-3.94-1.43-.83-3.2-.76-4.56.17-2.09,1.33-2.71,4.09-1.38,6.18.01.02.03.04.04.07.72,1.12,1.9,1.85,3.22,2.01,1.6.23,5.22.87,5.22.87,0,0-.16-3.94-.17-5.36Z"/><path id="Path_10749" class="cls-5" d="M83.23,157.04s3.62-.64,5.22-.87c1.32-.15,2.5-.89,3.22-2.01,1.36-2.07.79-4.84-1.27-6.21-.02-.01-.04-.03-.07-.04-1.36-.93-3.13-1-4.56-.17-1.49.74-2.41,2.28-2.37,3.94,0,1.42-.17,5.36-.17,5.36Z"/></g><g id="Group_301"><path id="Path_10750" class="cls-5" d="M180.35,152.34s2.31-2.86,3.36-4.08c.89-.98,1.3-2.32,1.11-3.63-.33-2.45-2.59-4.17-5.04-3.84-.03,0-.05,0-.08.01-1.64.19-3.02,1.31-3.55,2.87-.63,1.54-.32,3.3.81,4.53.92,1.08,3.39,4.15,3.39,4.15Z"/><path id="Path_10751" class="cls-5" d="M185.79,162.88c-.04,1.66.88,3.2,2.37,3.94,1.43.83,3.2.76,4.56-.17,2.09-1.33,2.71-4.09,1.38-6.18-.01-.02-.03-.04-.04-.07-.72-1.12-1.9-1.85-3.22-2.01-1.6-.23-5.22-.87-5.22-.87,0,0,.16,3.94.17,5.36Z"/><path id="Path_10752" class="cls-5" d="M175.17,157.52s-3.62.64-5.22.87c-1.32.15-2.5.89-3.22,2.01-1.36,2.07-.79,4.85,1.28,6.21.02.01.04.03.07.04,1.36.93,3.13,1,4.56.17,1.49-.74,2.41-2.28,2.37-3.94,0-1.42.17-5.36.17-5.36Z"/><path id="Path_10753" class="cls-5" d="M175,143.52c.04-1.66-.88-3.2-2.37-3.94-1.43-.83-3.2-.76-4.56.17-2.09,1.32-2.71,4.09-1.39,6.18.01.02.03.04.04.07.72,1.12,1.9,1.85,3.22,2.01,1.6.23,5.22.87,5.22.87,0,0-.16-3.94-.17-5.36Z"/><path id="Path_10754" class="cls-5" d="M185.62,148.88s3.62-.64,5.22-.87c1.32-.15,2.5-.89,3.22-2.01,1.36-2.07.79-4.85-1.28-6.21-.02-.01-.04-.03-.07-.04-1.36-.93-3.13-1-4.56-.17-1.49.74-2.41,2.28-2.37,3.94,0,1.42-.17,5.36-.17,5.36Z"/></g><g id="Group_302"><path id="Path_10755" class="cls-5" d="M7.33,138.98s.39,3.65.51,5.26c.06,1.33.72,2.56,1.78,3.36,1.97,1.5,4.78,1.12,6.28-.85.02-.02.03-.04.05-.06,1.02-1.29,1.21-3.06.48-4.54-.64-1.54-2.11-2.56-3.77-2.63-1.41-.11-5.33-.54-5.33-.54Z"/><path id="Path_10756" class="cls-5" d="M14.34,162.88c-.04,1.66.88,3.2,2.37,3.94,1.43.83,3.2.76,4.56-.17,2.09-1.33,2.71-4.09,1.38-6.18-.01-.02-.03-.04-.04-.07-.72-1.12-1.9-1.85-3.22-2.01-1.6-.23-5.22-.87-5.22-.87,0,0,.16,3.94.17,5.36Z"/><path id="Path_10757" class="cls-5" d="M11.19,157.52s-3.62.64-5.22.87c-1.32.15-2.5.89-3.22,2.01-1.36,2.07-.79,4.85,1.28,6.21.02.01.04.03.07.04,1.36.93,3.13,1,4.56.17,1.49-.74,2.41-2.28,2.37-3.94,0-1.42.17-5.36.17-5.36Z"/><path id="Path_10758" class="cls-5" d="M7.47,147.95c.04-1.66-.88-3.2-2.37-3.94-1.43-.83-3.2-.76-4.56.17-2.09,1.33-2.71,4.09-1.38,6.18.01.02.03.04.04.07.72,1.12,1.9,1.85,3.22,2.01,1.6.23,5.22.87,5.22.87,0,0-.16-3.94-.17-5.36Z"/><path id="Path_10759" class="cls-5" d="M18.09,153.31s3.62-.64,5.22-.87c1.32-.15,2.5-.89,3.22-2.01,1.36-2.07.79-4.85-1.28-6.21-.02-.01-.04-.03-.07-.04-1.36-.93-3.13-1-4.56-.17-1.49.74-2.41,2.28-2.37,3.94,0,1.42-.17,5.36-.17,5.36Z"/></g><g id="Group_303"><path id="Path_10760" class="cls-5" d="M46.28,139.01s-2.31,2.86-3.36,4.08c-.89.98-1.3,2.32-1.11,3.63.33,2.45,2.59,4.17,5.04,3.84.03,0,.05,0,.08-.01,1.64-.19,3.02-1.31,3.55-2.87.63-1.54.32-3.3-.81-4.53-.92-1.08-3.39-4.15-3.39-4.15Z"/><path id="Path_10761" class="cls-5" d="M49.88,162.88c-.04,1.66.88,3.2,2.37,3.94,1.43.83,3.2.76,4.56-.17,2.09-1.33,2.71-4.09,1.39-6.18-.01-.02-.03-.04-.04-.07-.72-1.12-1.9-1.85-3.22-2.01-1.6-.23-5.22-.87-5.22-.87,0,0,.16,3.94.17,5.36Z"/><path id="Path_10762" class="cls-5" d="M42.99,157.52s-3.62.64-5.22.87c-1.32.15-2.5.89-3.22,2.01-1.36,2.07-.79,4.85,1.28,6.21.02.01.04.03.07.04,1.36.93,3.13,1,4.56.17,1.49-.74,2.41-2.28,2.37-3.94,0-1.42.17-5.36.17-5.36Z"/><path id="Path_10763" class="cls-5" d="M42.87,151.68c.04-1.66-.88-3.2-2.37-3.94-1.43-.83-3.2-.76-4.56.17-2.09,1.32-2.71,4.09-1.39,6.18.01.02.03.04.04.07.72,1.12,1.9,1.85,3.22,2.01,1.6.23,5.22.87,5.22.87,0,0-.16-3.94-.17-5.36Z"/><path id="Path_10764" class="cls-5" d="M49.75,157.04s3.62-.64,5.22-.87c1.32-.15,2.5-.89,3.22-2.01,1.36-2.07.79-4.85-1.28-6.21-.02-.01-.04-.03-.07-.04-1.36-.93-3.13-1-4.56-.17-1.49.74-2.41,2.28-2.37,3.94,0,1.42-.17,5.36-.17,5.36Z"/></g><g id="Group_305"><path id="Path_10765" class="cls-5" d="M318.07,138.67s-2.31,2.86-3.36,4.08c-.89.98-1.3,2.32-1.11,3.63.33,2.45,2.59,4.17,5.04,3.84.03,0,.05,0,.08-.01,1.64-.19,3.02-1.31,3.55-2.87.63-1.54.32-3.3-.81-4.53-.92-1.08-3.39-4.15-3.39-4.15Z"/><g id="Group_304"><path id="Path_10766" class="cls-5" d="M318.49,163.29c-.04,1.66.88,3.2,2.37,3.94,1.43.83,3.2.76,4.56-.17,2.09-1.32,2.71-4.09,1.39-6.18-.01-.02-.03-.04-.04-.07-.72-1.12-1.9-1.85-3.22-2.01-1.6-.23-5.22-.87-5.22-.87,0,0,.16,3.94.17,5.36Z"/><path id="Path_10767" class="cls-5" d="M317.82,157.94s-3.62.64-5.22.87c-1.32.15-2.5.89-3.22,2.01-1.36,2.07-.79,4.85,1.28,6.21.02.01.04.03.07.04,1.36.93,3.13,1,4.56.17,1.49-.74,2.41-2.28,2.37-3.94,0-1.42.17-5.36.17-5.36Z"/></g><path id="Path_10768" class="cls-5" d="M318.19,153.69s-2.86-2.31-4.08-3.36c-.98-.89-2.32-1.3-3.63-1.11-2.45.33-4.17,2.59-3.84,5.04,0,.03,0,.05.01.08.19,1.64,1.31,3.02,2.87,3.55,1.54.64,3.3.32,4.53-.81,1.08-.93,4.15-3.39,4.15-3.39Z"/><path id="Path_10769" class="cls-5" d="M317.94,153.69s2.86,2.31,4.08,3.36c.98.89,2.32,1.3,3.63,1.11,2.45-.33,4.17-2.59,3.84-5.04,0-.03,0-.05-.01-.08-.19-1.64-1.31-3.02-2.87-3.55-1.54-.64-3.3-.32-4.53.81-1.08.92-4.15,3.39-4.15,3.39Z"/></g><g id="Group_306"><path id="Path_10770" class="cls-5" d="M356.52,141.2s-3.65.39-5.26.51c-1.33.06-2.56.72-3.36,1.78-1.5,1.97-1.12,4.78.85,6.28.02.02.04.03.06.05,1.29,1.02,3.06,1.21,4.54.48,1.54-.64,2.56-2.11,2.63-3.77.11-1.41.54-5.33.54-5.33Z"/><path id="Path_10771" class="cls-5" d="M352.57,163.29c-.04,1.66.88,3.2,2.37,3.94,1.43.83,3.2.76,4.56-.17,2.09-1.32,2.71-4.09,1.39-6.18-.01-.02-.03-.04-.04-.07-.72-1.12-1.9-1.85-3.22-2.01-1.6-.23-5.22-.87-5.22-.87,0,0,.16,3.94.17,5.36Z"/><path id="Path_10772" class="cls-5" d="M350.51,157.94s-3.62.64-5.22.87c-1.32.15-2.5.89-3.22,2.01-1.36,2.07-.79,4.85,1.28,6.21.02.01.04.03.07.04,1.36.93,3.13,1,4.56.17,1.49-.74,2.41-2.28,2.37-3.94,0-1.42.17-5.36.17-5.36Z"/><path id="Path_10773" class="cls-5" d="M356.34,148.76s.39,3.65.52,5.27c.06,1.33.72,2.56,1.78,3.35,1.97,1.5,4.78,1.12,6.28-.85.02-.02.03-.04.05-.06,1.02-1.29,1.21-3.06.48-4.54-.64-1.54-2.11-2.56-3.77-2.63-1.41-.11-5.33-.54-5.33-.54Z"/><path id="Path_10774" class="cls-5" d="M341.47,149.29c-1.66.07-3.13,1.1-3.77,2.63-.73,1.48-.54,3.24.48,4.54,1.46,1.99,4.27,2.42,6.26.96.02-.02.04-.03.06-.05,1.06-.8,1.72-2.03,1.78-3.35.12-1.61.51-5.27.51-5.27,0,0-3.92.43-5.33.54Z"/></g><g id="Group_308"><path id="Path_10775" class="cls-5" d="M284.44,152.06s2.31-2.86,3.36-4.08c.89-.98,1.3-2.32,1.11-3.63-.33-2.45-2.59-4.17-5.04-3.84-.03,0-.05,0-.08.01-1.64.19-3.02,1.31-3.55,2.87-.63,1.54-.32,3.3.81,4.53.92,1.08,3.39,4.15,3.39,4.15Z"/><g id="Group_307"><path id="Path_10776" class="cls-5" d="M284.86,162.88c-.04,1.66.88,3.2,2.37,3.94,1.43.83,3.2.76,4.56-.17,2.09-1.33,2.71-4.09,1.38-6.18-.01-.02-.03-.04-.04-.07-.72-1.12-1.9-1.85-3.22-2.01-1.6-.23-5.22-.87-5.22-.87,0,0,.16,3.94.17,5.36Z"/><path id="Path_10777" class="cls-5" d="M284.19,157.52s-3.62.64-5.22.87c-1.32.15-2.5.89-3.22,2.01-1.36,2.07-.79,4.85,1.28,6.21.02.01.04.03.07.04,1.36.93,3.13,1,4.56.17,1.49-.74,2.41-2.28,2.37-3.94,0-1.42.17-5.36.17-5.36Z"/></g><path id="Path_10778" class="cls-5" d="M281.03,151.68c.04-1.66-.88-3.2-2.37-3.94-1.43-.83-3.2-.76-4.56.17-2.09,1.33-2.71,4.09-1.38,6.18.01.02.03.04.04.06.72,1.12,1.9,1.85,3.22,2.01,1.6.23,5.22.87,5.22.87,0,0-.16-3.94-.17-5.36Z"/><path id="Path_10779" class="cls-5" d="M287.92,157.04s3.62-.64,5.22-.87c1.32-.15,2.5-.89,3.22-2.01,1.36-2.07.79-4.85-1.28-6.21-.02-.01-.04-.03-.07-.04-1.36-.93-3.13-1-4.56-.17-1.49.74-2.41,2.28-2.37,3.94,0,1.42-.17,5.36-.17,5.36Z"/></g><g id="Group_309"><path id="Path_10780" class="cls-5" d="M385.03,152.34s2.31-2.86,3.36-4.08c.89-.98,1.3-2.32,1.11-3.63-.33-2.45-2.59-4.17-5.04-3.84-.03,0-.05,0-.08.01-1.64.19-3.02,1.31-3.55,2.87-.64,1.54-.32,3.3.81,4.53.92,1.08,3.39,4.15,3.39,4.15Z"/><path id="Path_10781" class="cls-5" d="M390.47,162.88c-.04,1.66.88,3.2,2.37,3.94,1.43.83,3.2.76,4.56-.17,2.09-1.33,2.71-4.09,1.38-6.18-.01-.02-.03-.04-.04-.07-.72-1.12-1.9-1.85-3.22-2.01-1.6-.23-5.22-.87-5.22-.87,0,0,.16,3.94.17,5.36Z"/><path id="Path_10782" class="cls-5" d="M379.85,157.52s-3.62.64-5.22.87c-1.32.15-2.5.89-3.22,2.01-1.36,2.07-.79,4.85,1.28,6.21.02.01.04.03.07.04,1.36.93,3.13,1,4.56.17,1.49-.74,2.41-2.28,2.37-3.94,0-1.42.17-5.36.17-5.36Z"/><path id="Path_10783" class="cls-5" d="M379.68,143.52c.04-1.66-.88-3.2-2.37-3.94-1.43-.83-3.2-.76-4.56.17-2.09,1.32-2.71,4.09-1.39,6.18.01.02.03.04.04.07.72,1.12,1.9,1.85,3.22,2.01,1.6.23,5.22.87,5.22.87,0,0-.16-3.94-.17-5.36Z"/><path id="Path_10784" class="cls-5" d="M390.3,148.88s3.62-.64,5.22-.87c1.32-.15,2.5-.89,3.22-2.01,1.36-2.07.79-4.85-1.28-6.21-.02-.01-.04-.03-.07-.04-1.36-.93-3.13-1-4.56-.17-1.49.74-2.41,2.28-2.37,3.94,0,1.42-.17,5.36-.17,5.36Z"/></g><g id="Group_310"><path id="Path_10785" class="cls-5" d="M212.02,138.98s.39,3.65.51,5.26c.06,1.33.72,2.56,1.78,3.36,1.97,1.5,4.78,1.12,6.28-.85.02-.02.03-.04.05-.06,1.02-1.29,1.21-3.06.48-4.54-.64-1.54-2.11-2.56-3.77-2.63-1.42-.11-5.33-.54-5.33-.54Z"/><path id="Path_10786" class="cls-5" d="M219.03,162.88c-.04,1.66.88,3.2,2.37,3.94,1.43.83,3.2.76,4.56-.17,2.09-1.33,2.71-4.09,1.38-6.18-.01-.02-.03-.04-.04-.07-.72-1.12-1.9-1.85-3.22-2.01-1.6-.23-5.22-.87-5.22-.87,0,0,.16,3.94.17,5.36Z"/><path id="Path_10787" class="cls-5" d="M215.86,157.52s-3.62.64-5.22.87c-1.32.15-2.5.89-3.22,2.01-1.36,2.07-.79,4.85,1.28,6.21.02.01.04.03.07.04,1.36.93,3.13,1,4.56.17,1.49-.74,2.41-2.28,2.37-3.94.01-1.42.17-5.36.17-5.36Z"/><path id="Path_10788" class="cls-5" d="M212.15,147.95c.04-1.66-.88-3.2-2.37-3.94-1.43-.83-3.2-.76-4.56.17-2.09,1.33-2.71,4.09-1.38,6.18.01.02.03.04.04.07.72,1.12,1.9,1.85,3.22,2.01,1.6.23,5.22.87,5.22.87,0,0-.16-3.94-.17-5.36Z"/><path id="Path_10789" class="cls-5" d="M222.77,153.31s3.62-.64,5.22-.87c1.32-.15,2.5-.89,3.22-2.01,1.36-2.07.79-4.85-1.28-6.21-.02-.01-.04-.03-.07-.04-1.36-.93-3.13-1-4.56-.17-1.49.74-2.41,2.28-2.37,3.94,0,1.42-.17,5.36-.17,5.36Z"/></g><g id="Group_311"><path id="Path_10790" class="cls-5" d="M250.96,139.01s-2.31,2.86-3.36,4.08c-.9.98-1.3,2.32-1.11,3.63.33,2.45,2.59,4.17,5.04,3.84.03,0,.05,0,.08-.01,1.64-.19,3.02-1.31,3.55-2.87.64-1.54.32-3.3-.81-4.53-.92-1.08-3.39-4.15-3.39-4.15Z"/><path id="Path_10791" class="cls-5" d="M254.56,162.88c-.04,1.66.88,3.2,2.37,3.94,1.43.83,3.2.76,4.56-.17,2.09-1.33,2.71-4.09,1.38-6.18-.01-.02-.03-.04-.04-.07-.72-1.12-1.9-1.85-3.22-2.01-1.6-.23-5.22-.87-5.22-.87,0,0,.16,3.94.17,5.36Z"/><path id="Path_10792" class="cls-5" d="M247.67,157.52s-3.62.64-5.22.87c-1.32.15-2.5.89-3.22,2.01-1.36,2.07-.79,4.85,1.28,6.21.02.01.04.03.07.04,1.36.93,3.13,1,4.56.17,1.49-.74,2.41-2.28,2.37-3.94.01-1.42.17-5.36.17-5.36Z"/><path id="Path_10793" class="cls-5" d="M247.55,151.68c.04-1.66-.88-3.2-2.37-3.94-1.43-.83-3.2-.76-4.56.17-2.09,1.32-2.71,4.09-1.39,6.18.01.02.03.04.04.07.72,1.12,1.9,1.85,3.22,2.01,1.6.23,5.22.87,5.22.87,0,0-.16-3.94-.17-5.36Z"/><path id="Path_10794" class="cls-5" d="M254.43,157.04s3.62-.64,5.22-.87c1.32-.15,2.5-.89,3.22-2.01,1.36-2.07.79-4.84-1.28-6.21-.02-.01-.04-.03-.07-.04-1.36-.93-3.13-1-4.56-.17-1.49.74-2.41,2.28-2.37,3.94,0,1.42-.17,5.36-.17,5.36Z"/></g></g><g id="Group_329"><g id="Group_314"><path id="Path_10795" class="cls-5" d="M281.17,178.31c-1.13,1.22-1.44,2.99-.81,4.53.53,1.56,1.91,2.67,3.55,2.87,2.45.37,4.73-1.3,5.11-3.75,0-.03,0-.05.01-.08.19-1.32-.22-2.65-1.11-3.63-1.05-1.22-3.36-4.08-3.36-4.08,0,0-2.47,3.07-3.39,4.15Z"/><g id="Group_313"><path id="Path_10796" class="cls-5" d="M284.31,193.43s-3.62.64-5.22.87c-1.32.15-2.5.89-3.22,2.01-1.36,2.07-.79,4.84,1.27,6.21.02.01.05.03.07.04,1.36.93,3.13,1,4.56.17,1.49-.74,2.41-2.28,2.37-3.94,0-1.42.17-5.36.17-5.36Z"/><path id="Path_10797" class="cls-5" d="M284.98,198.79c-.04,1.66.88,3.2,2.37,3.94,1.43.83,3.2.76,4.56-.17,2.09-1.33,2.71-4.09,1.38-6.18-.01-.02-.03-.04-.04-.07-.72-1.12-1.9-1.85-3.22-2.01-1.6-.23-5.22-.87-5.22-.87,0,0,.16,3.94.17,5.36Z"/></g><path id="Path_10798" class="cls-5" d="M288.58,192.57c1.22,1.13,2.99,1.44,4.53.81,1.56-.53,2.67-1.91,2.87-3.55.37-2.45-1.3-4.73-3.75-5.11-.03,0-.05,0-.08-.01-1.32-.19-2.65.22-3.63,1.11-1.23,1.05-4.08,3.36-4.08,3.36,0,0,3.07,2.47,4.15,3.39Z"/><path id="Path_10799" class="cls-5" d="M280.54,185.79c-1.22-1.13-2.99-1.44-4.53-.81-1.56.53-2.67,1.91-2.87,3.55-.37,2.45,1.3,4.73,3.75,5.11.03,0,.05,0,.08.01,1.32.19,2.65-.22,3.63-1.11,1.22-1.05,4.08-3.36,4.08-3.36,0,0-3.07-2.47-4.15-3.39Z"/></g><g id="Group_315"><path id="Path_10800" class="cls-5" d="M246.64,182.02c.07,1.66,1.1,3.13,2.63,3.77,1.48.73,3.24.54,4.54-.48,1.99-1.47,2.42-4.27.96-6.26-.02-.02-.03-.04-.05-.06-.8-1.06-2.03-1.72-3.36-1.78-1.61-.12-5.26-.51-5.26-.51,0,0,.43,3.92.54,5.33Z"/><path id="Path_10801" class="cls-5" d="M250.23,193.43s-3.62.64-5.22.87c-1.32.15-2.5.89-3.22,2.01-1.36,2.07-.79,4.85,1.28,6.21.02.01.04.03.07.04,1.36.93,3.13,1,4.56.17,1.49-.74,2.41-2.28,2.37-3.94,0-1.42.17-5.36.17-5.36Z"/><path id="Path_10802" class="cls-5" d="M252.28,198.79c-.04,1.66.88,3.2,2.37,3.94,1.43.83,3.2.76,4.56-.17,2.09-1.33,2.71-4.09,1.38-6.18-.01-.02-.03-.04-.04-.07-.72-1.12-1.9-1.85-3.22-2.01-1.6-.23-5.22-.87-5.22-.87,0,0,.16,3.94.17,5.36Z"/><path id="Path_10803" class="cls-5" d="M240.95,184.79c-1.66.07-3.13,1.1-3.77,2.63-.73,1.48-.54,3.25.48,4.54,1.46,1.99,4.27,2.42,6.26.96.02-.02.04-.03.06-.05,1.06-.8,1.72-2.03,1.78-3.36.12-1.61.51-5.26.51-5.26,0,0-3.92.43-5.33.54Z"/><path id="Path_10804" class="cls-5" d="M255.82,184.25s.39,3.65.51,5.26c.06,1.33.72,2.56,1.78,3.36,1.97,1.5,4.78,1.12,6.28-.85.02-.02.03-.04.05-.06,1.02-1.29,1.21-3.06.48-4.54-.64-1.54-2.11-2.56-3.77-2.63-1.42-.11-5.33-.54-5.33-.54Z"/></g><g id="Group_317"><path id="Path_10805" class="cls-5" d="M321.57,183.41c1.13-1.22,1.44-2.99.81-4.53-.53-1.56-1.91-2.67-3.55-2.87-2.45-.37-4.73,1.3-5.11,3.75,0,.03,0,.05-.01.08-.19,1.32.22,2.65,1.11,3.63,1.05,1.22,3.36,4.08,3.36,4.08,0,0,2.47-3.07,3.39-4.15Z"/><g id="Group_316"><path id="Path_10806" class="cls-5" d="M317.93,193.01s-3.62.64-5.22.87c-1.32.15-2.5.89-3.22,2.01-1.36,2.07-.79,4.85,1.28,6.21.02.01.04.03.07.04,1.36.93,3.13,1,4.56.17,1.49-.74,2.41-2.28,2.37-3.94,0-1.42.17-5.36.17-5.36Z"/><path id="Path_10807" class="cls-5" d="M318.6,198.37c-.04,1.66.88,3.2,2.37,3.94,1.43.83,3.2.76,4.56-.17,2.09-1.33,2.71-4.09,1.38-6.18-.01-.02-.03-.04-.04-.07-.72-1.12-1.9-1.85-3.22-2.01-1.6-.23-5.22-.87-5.22-.87,0,0,.16,3.94.17,5.36Z"/></g><path id="Path_10808" class="cls-5" d="M321.42,192.54s3.62-.64,5.22-.87c1.32-.15,2.5-.89,3.22-2.01,1.36-2.07.79-4.85-1.28-6.21-.02-.01-.04-.03-.07-.04-1.36-.93-3.13-1-4.56-.17-1.49.74-2.41,2.28-2.37,3.94,0,1.42-.17,5.36-.17,5.36Z"/><path id="Path_10809" class="cls-5" d="M314.54,187.18c.04-1.66-.88-3.2-2.37-3.94-1.43-.83-3.2-.76-4.56.17-2.09,1.32-2.71,4.09-1.39,6.18.01.02.03.04.04.07.72,1.12,1.9,1.85,3.22,2.01,1.6.23,5.22.87,5.22.87,0,0-.16-3.94-.17-5.36Z"/></g><g id="Group_318"><path id="Path_10810" class="cls-5" d="M220.98,183.68c1.13-1.22,1.44-2.99.81-4.53-.53-1.56-1.91-2.67-3.55-2.87-2.45-.37-4.73,1.3-5.11,3.75,0,.03,0,.05-.01.08-.19,1.32.22,2.65,1.11,3.63,1.05,1.23,3.36,4.08,3.36,4.08,0,0,2.47-3.07,3.39-4.15Z"/><path id="Path_10811" class="cls-5" d="M212.32,193.01s-3.62.64-5.22.87c-1.32.15-2.5.89-3.22,2.01-1.36,2.07-.79,4.85,1.28,6.21.02.01.04.03.07.04,1.36.93,3.13,1,4.56.17,1.49-.74,2.41-2.28,2.37-3.94,0-1.42.17-5.36.17-5.36Z"/><path id="Path_10812" class="cls-5" d="M222.94,198.37c-.04,1.66.88,3.2,2.37,3.94,1.43.83,3.2.76,4.56-.17,2.09-1.32,2.71-4.09,1.39-6.18-.01-.02-.03-.04-.04-.07-.72-1.12-1.9-1.85-3.22-2.01-1.6-.23-5.22-.87-5.22-.87,0,0,.16,3.94.17,5.36Z"/><path id="Path_10813" class="cls-5" d="M222.77,184.37s3.62-.64,5.22-.87c1.32-.15,2.5-.89,3.22-2.01,1.36-2.07.79-4.85-1.28-6.21-.02-.01-.04-.03-.07-.04-1.36-.93-3.13-1-4.56-.17-1.49.74-2.41,2.28-2.37,3.94,0,1.42-.17,5.36-.17,5.36Z"/><path id="Path_10814" class="cls-5" d="M212.15,179.02c.04-1.66-.88-3.2-2.37-3.94-1.43-.83-3.2-.76-4.56.17-2.09,1.33-2.71,4.09-1.38,6.18.01.02.03.04.04.07.72,1.12,1.9,1.85,3.22,2.01,1.6.23,5.22.87,5.22.87,0,0-.16-3.94-.17-5.36Z"/></g><g id="Group_319"><path id="Path_10815" class="cls-5" d="M385.28,175.01c-1.66.07-3.13,1.1-3.77,2.63-.73,1.48-.54,3.25.48,4.54,1.46,1.99,4.27,2.42,6.26.96.02-.02.04-.03.06-.05,1.06-.8,1.72-2.03,1.78-3.36.12-1.61.51-5.26.51-5.26,0,0-3.92.43-5.33.54Z"/><path id="Path_10816" class="cls-5" d="M383.77,193.01s-3.62.64-5.22.87c-1.32.15-2.5.89-3.22,2.01-1.36,2.07-.79,4.85,1.28,6.21.02.01.04.03.07.04,1.36.93,3.13,1,4.56.17,1.49-.74,2.41-2.28,2.37-3.94,0-1.42.17-5.36.17-5.36Z"/><path id="Path_10817" class="cls-5" d="M386.93,198.37c-.04,1.66.88,3.2,2.37,3.94,1.43.83,3.2.76,4.56-.17,2.09-1.32,2.71-4.09,1.39-6.18-.01-.02-.03-.04-.04-.07-.72-1.12-1.9-1.85-3.22-2.01-1.6-.23-5.22-.87-5.22-.87,0,0,.16,3.94.17,5.36Z"/><path id="Path_10818" class="cls-5" d="M390.3,188.8s3.62-.64,5.22-.87c1.32-.15,2.5-.89,3.22-2.01,1.36-2.07.79-4.85-1.28-6.21-.02-.01-.04-.03-.07-.04-1.36-.93-3.13-1-4.56-.17-1.49.74-2.41,2.28-2.37,3.94,0,1.42-.17,5.36-.17,5.36Z"/><path id="Path_10819" class="cls-5" d="M379.68,183.44c.04-1.66-.88-3.2-2.37-3.94-1.43-.83-3.2-.76-4.56.17-2.09,1.32-2.71,4.09-1.39,6.18.01.02.03.04.04.07.72,1.12,1.9,1.85,3.22,2.01,1.6.23,5.22.87,5.22.87,0,0-.16-3.94-.17-5.36Z"/></g><g id="Group_320"><path id="Path_10820" class="cls-5" d="M348.27,178.65c-1.13,1.22-1.44,2.99-.81,4.53.53,1.56,1.91,2.67,3.55,2.87,2.45.37,4.73-1.3,5.11-3.75,0-.03,0-.05.01-.08.19-1.32-.22-2.65-1.11-3.63-1.05-1.23-3.36-4.08-3.36-4.08,0,0-2.47,3.07-3.39,4.15Z"/><path id="Path_10821" class="cls-5" d="M348.23,193.01s-3.62.64-5.22.87c-1.32.15-2.5.89-3.22,2.01-1.36,2.07-.79,4.85,1.28,6.21.02.01.04.03.07.04,1.36.93,3.13,1,4.56.17,1.49-.74,2.41-2.28,2.37-3.94,0-1.42.17-5.36.17-5.36Z"/><path id="Path_10822" class="cls-5" d="M355.13,198.37c-.04,1.66.88,3.2,2.37,3.94,1.43.83,3.2.76,4.56-.17,2.09-1.33,2.71-4.09,1.38-6.18-.01-.02-.03-.04-.04-.07-.72-1.12-1.9-1.85-3.22-2.01-1.6-.23-5.22-.87-5.22-.87,0,0,.16,3.94.17,5.36Z"/><path id="Path_10823" class="cls-5" d="M354.9,192.54s3.62-.64,5.22-.87c1.32-.15,2.5-.89,3.22-2.01,1.36-2.07.79-4.85-1.28-6.21-.02-.01-.04-.03-.07-.04-1.36-.93-3.13-1-4.56-.17-1.49.74-2.41,2.28-2.37,3.94,0,1.42-.17,5.36-.17,5.36Z"/><path id="Path_10824" class="cls-5" d="M348.02,187.18c.04-1.66-.88-3.2-2.37-3.94-1.43-.83-3.2-.76-4.56.17-2.09,1.33-2.71,4.09-1.38,6.18.01.02.03.04.04.07.72,1.12,1.9,1.85,3.22,2.01,1.6.23,5.22.87,5.22.87,0,0-.16-3.94-.17-5.36Z"/></g><g id="Group_322"><path id="Path_10825" class="cls-5" d="M76.48,178.31c-1.13,1.22-1.44,2.99-.8,4.53.53,1.56,1.91,2.67,3.55,2.87,2.45.38,4.73-1.3,5.11-3.75,0-.03,0-.05.01-.08.19-1.32-.22-2.65-1.11-3.63-1.05-1.22-3.36-4.08-3.36-4.08,0,0-2.47,3.07-3.39,4.15Z"/><g id="Group_321"><path id="Path_10826" class="cls-5" d="M79.63,193.43s-3.62.64-5.22.87c-1.32.15-2.5.89-3.22,2.01-1.36,2.07-.79,4.84,1.27,6.21.02.01.05.03.07.04,1.36.93,3.13,1,4.56.17,1.49-.74,2.41-2.28,2.37-3.94,0-1.42.17-5.36.17-5.36Z"/><path id="Path_10827" class="cls-5" d="M80.3,198.79c-.04,1.66.88,3.2,2.37,3.94,1.43.83,3.2.76,4.56-.17,2.09-1.33,2.71-4.09,1.38-6.18-.01-.02-.03-.04-.04-.07-.72-1.12-1.9-1.85-3.22-2.01-1.6-.23-5.22-.87-5.22-.87,0,0,.16,3.94.17,5.36Z"/></g><path id="Path_10828" class="cls-5" d="M83.9,192.57c1.22,1.13,2.99,1.44,4.53.81,1.56-.53,2.67-1.91,2.87-3.55.37-2.45-1.3-4.73-3.75-5.11-.03,0-.05,0-.08-.01-1.32-.19-2.65.22-3.63,1.11-1.23,1.05-4.09,3.36-4.09,3.36,0,0,3.08,2.47,4.15,3.39Z"/><path id="Path_10829" class="cls-5" d="M75.86,185.79c-1.22-1.13-2.99-1.44-4.53-.81-1.56.53-2.67,1.91-2.87,3.55-.37,2.45,1.3,4.73,3.75,5.11.03,0,.05,0,.08.01,1.32.19,2.65-.22,3.63-1.11,1.22-1.05,4.08-3.36,4.08-3.36,0,0-3.07-2.47-4.15-3.39Z"/></g><g id="Group_323"><path id="Path_10830" class="cls-5" d="M41.95,182.02c.07,1.66,1.1,3.13,2.63,3.77,1.48.73,3.25.54,4.54-.48,1.99-1.46,2.42-4.27.96-6.26-.02-.02-.03-.04-.05-.06-.8-1.06-2.03-1.72-3.36-1.78-1.61-.12-5.26-.51-5.26-.51,0,0,.43,3.92.54,5.33Z"/><path id="Path_10831" class="cls-5" d="M45.55,193.43s-3.62.64-5.22.87c-1.32.15-2.5.89-3.22,2.01-1.36,2.07-.79,4.85,1.28,6.21.02.01.04.03.07.04,1.36.93,3.13,1,4.56.17,1.49-.74,2.41-2.28,2.37-3.94,0-1.42.17-5.36.17-5.36Z"/><path id="Path_10832" class="cls-5" d="M47.6,198.79c-.04,1.66.88,3.2,2.37,3.94,1.43.83,3.2.76,4.56-.17,2.09-1.32,2.71-4.09,1.39-6.18-.01-.02-.03-.04-.04-.07-.72-1.12-1.9-1.85-3.22-2.01-1.6-.23-5.22-.87-5.22-.87,0,0,.16,3.94.17,5.36Z"/><path id="Path_10833" class="cls-5" d="M36.27,184.79c-1.66.07-3.13,1.1-3.77,2.63-.73,1.48-.54,3.25.48,4.54,1.46,1.99,4.27,2.42,6.26.96.02-.02.04-.03.06-.05,1.06-.8,1.72-2.03,1.78-3.36.12-1.61.51-5.26.51-5.26,0,0-3.92.43-5.33.54Z"/><path id="Path_10834" class="cls-5" d="M51.14,184.25s.39,3.65.52,5.26c.06,1.33.71,2.56,1.78,3.36,1.97,1.5,4.78,1.12,6.28-.85.02-.02.03-.04.05-.06,1.02-1.29,1.21-3.06.48-4.54-.64-1.54-2.11-2.56-3.77-2.63-1.42-.11-5.33-.54-5.33-.54Z"/></g><g id="Group_325"><path id="Path_10835" class="cls-5" d="M116.89,183.41c1.13-1.22,1.44-2.99.81-4.53-.53-1.56-1.91-2.67-3.55-2.87-2.45-.37-4.73,1.31-5.11,3.75,0,.03,0,.05-.01.08-.19,1.32.22,2.65,1.11,3.63,1.05,1.22,3.36,4.08,3.36,4.08,0,0,2.46-3.07,3.39-4.15Z"/><g id="Group_324"><path id="Path_10836" class="cls-5" d="M113.25,193.01s-3.62.64-5.22.87c-1.32.15-2.5.89-3.22,2.01-1.36,2.07-.79,4.85,1.28,6.21.02.01.04.03.06.04,1.36.93,3.13,1,4.56.17,1.49-.74,2.41-2.28,2.37-3.94.01-1.42.17-5.36.17-5.36Z"/><path id="Path_10837" class="cls-5" d="M113.92,198.37c-.04,1.66.88,3.2,2.37,3.94,1.43.83,3.2.76,4.56-.17,2.09-1.33,2.71-4.09,1.38-6.18-.01-.02-.03-.04-.04-.07-.72-1.12-1.9-1.85-3.22-2.01-1.6-.23-5.22-.87-5.22-.87,0,0,.16,3.94.17,5.36Z"/></g><path id="Path_10838" class="cls-5" d="M116.74,192.54s3.62-.64,5.22-.87c1.32-.15,2.5-.89,3.22-2.01,1.36-2.07.79-4.85-1.28-6.21-.02-.01-.04-.03-.07-.04-1.36-.93-3.13-1-4.56-.17-1.49.74-2.41,2.28-2.37,3.94,0,1.42-.17,5.36-.17,5.36Z"/><path id="Path_10839" class="cls-5" d="M109.86,187.18c.04-1.66-.88-3.2-2.37-3.94-1.43-.83-3.2-.76-4.56.17-2.09,1.33-2.71,4.09-1.38,6.18.01.02.03.04.04.07.72,1.12,1.9,1.85,3.22,2.01,1.6.23,5.22.87,5.22.87,0,0-.16-3.94-.17-5.36Z"/></g><g id="Group_326"><path id="Path_10840" class="cls-5" d="M16.3,183.68c1.13-1.22,1.44-2.99.81-4.53-.53-1.56-1.91-2.67-3.55-2.87-2.45-.37-4.73,1.3-5.11,3.75,0,.03,0,.05-.01.08-.19,1.32.22,2.65,1.11,3.63,1.05,1.23,3.36,4.08,3.36,4.08,0,0,2.47-3.07,3.39-4.15Z"/><path id="Path_10841" class="cls-5" d="M7.64,193.01s-3.62.64-5.22.87c-1.32.15-2.5.89-3.22,2.01-1.36,2.07-.79,4.85,1.28,6.21.02.01.04.03.07.04,1.36.93,3.13,1,4.56.17,1.49-.74,2.41-2.28,2.37-3.94.01-1.42.17-5.36.17-5.36Z"/><path id="Path_10842" class="cls-5" d="M18.26,198.37c-.04,1.66.88,3.2,2.37,3.94,1.43.83,3.2.76,4.56-.17,2.09-1.33,2.71-4.09,1.38-6.18-.01-.02-.03-.04-.04-.07-.72-1.12-1.9-1.85-3.22-2.01-1.6-.23-5.22-.87-5.22-.87,0,0,.16,3.94.17,5.36Z"/><path id="Path_10843" class="cls-5" d="M18.09,184.37s3.62-.64,5.22-.87c1.32-.15,2.5-.89,3.22-2.01,1.36-2.07.79-4.85-1.28-6.21-.02-.01-.04-.03-.07-.04-1.36-.93-3.13-1-4.56-.17-1.49.74-2.41,2.28-2.37,3.94,0,1.42-.17,5.36-.17,5.36Z"/><path id="Path_10844" class="cls-5" d="M7.47,179.02c.04-1.66-.88-3.2-2.37-3.94-1.43-.83-3.2-.76-4.56.17-2.09,1.33-2.71,4.09-1.38,6.18.01.02.03.04.04.07.72,1.12,1.9,1.85,3.22,2.01,1.6.23,5.22.87,5.22.87,0,0-.16-3.94-.17-5.36Z"/></g><g id="Group_327"><path id="Path_10845" class="cls-5" d="M180.59,175.01c-1.66.07-3.13,1.1-3.77,2.63-.73,1.48-.54,3.25.48,4.54,1.46,1.99,4.27,2.42,6.26.96.02-.02.04-.03.06-.05,1.06-.8,1.72-2.03,1.78-3.36.12-1.61.51-5.26.51-5.26,0,0-3.92.43-5.33.54Z"/><path id="Path_10846" class="cls-5" d="M179.09,193.01s-3.62.64-5.22.87c-1.32.15-2.5.89-3.22,2.01-1.36,2.07-.79,4.85,1.28,6.21.02.01.04.03.07.04,1.36.93,3.13,1,4.56.17,1.49-.74,2.41-2.28,2.37-3.94,0-1.42.17-5.36.17-5.36Z"/><path id="Path_10847" class="cls-5" d="M182.25,198.37c-.04,1.66.88,3.2,2.37,3.94,1.43.83,3.2.76,4.56-.17,2.09-1.33,2.71-4.09,1.38-6.18-.01-.02-.03-.04-.04-.07-.72-1.12-1.9-1.85-3.22-2.01-1.6-.23-5.22-.87-5.22-.87,0,0,.16,3.94.17,5.36Z"/><path id="Path_10848" class="cls-5" d="M185.62,188.8s3.62-.64,5.22-.87c1.32-.15,2.5-.89,3.22-2.01,1.36-2.07.79-4.85-1.28-6.21-.02-.01-.04-.03-.07-.04-1.36-.93-3.13-1-4.56-.17-1.49.74-2.41,2.28-2.37,3.94,0,1.42-.17,5.36-.17,5.36Z"/><path id="Path_10849" class="cls-5" d="M175,183.44c.04-1.66-.88-3.2-2.37-3.94-1.43-.83-3.2-.76-4.56.17-2.09,1.32-2.71,4.09-1.39,6.18.01.02.03.04.04.07.72,1.12,1.9,1.85,3.22,2.01,1.6.23,5.22.87,5.22.87,0,0-.16-3.94-.17-5.36Z"/></g><g id="Group_328"><path id="Path_10850" class="cls-5" d="M143.59,178.65c-1.13,1.22-1.44,2.99-.81,4.53.53,1.56,1.91,2.67,3.55,2.87,2.45.37,4.73-1.3,5.11-3.75,0-.03,0-.05.01-.08.19-1.32-.22-2.65-1.11-3.63-1.05-1.23-3.36-4.08-3.36-4.08,0,0-2.47,3.07-3.39,4.15Z"/><path id="Path_10851" class="cls-5" d="M143.55,193.01s-3.62.64-5.22.87c-1.32.15-2.5.89-3.22,2.01-1.36,2.07-.79,4.85,1.28,6.21.02.01.04.03.07.04,1.36.93,3.13,1,4.56.17,1.49-.74,2.41-2.28,2.37-3.94,0-1.42.17-5.36.17-5.36Z"/><path id="Path_10852" class="cls-5" d="M150.44,198.37c-.04,1.66.88,3.2,2.37,3.94,1.43.83,3.2.76,4.56-.17,2.09-1.32,2.71-4.09,1.39-6.18-.01-.02-.03-.04-.04-.07-.72-1.12-1.9-1.85-3.22-2.01-1.6-.23-5.22-.87-5.22-.87,0,0,.16,3.94.17,5.36Z"/><path id="Path_10853" class="cls-5" d="M150.22,192.54s3.62-.64,5.22-.87c1.32-.15,2.5-.89,3.22-2.01,1.36-2.07.79-4.85-1.28-6.21-.02-.01-.04-.03-.07-.04-1.36-.93-3.13-1-4.56-.17-1.49.74-2.41,2.28-2.37,3.94,0,1.42-.17,5.36-.17,5.36Z"/><path id="Path_10854" class="cls-5" d="M143.34,187.18c.04-1.66-.88-3.2-2.37-3.94-1.43-.83-3.2-.76-4.56.17-2.09,1.32-2.71,4.09-1.39,6.18.01.02.03.04.04.07.72,1.12,1.9,1.85,3.22,2.01,1.6.23,5.22.87,5.22.87,0,0-.16-3.94-.17-5.36Z"/></g></g></g></g></g></g></g></g></g></svg>